<svg width="284" height="250" viewBox="0 0 284 250" fill="none" xmlns="http://www.w3.org/2000/svg">
<g clip-path="url(#clip0_9_2)">
<path d="M142 264.707C216.033 264.707 276.048 230.173 276.048 187.572C276.048 144.972 216.033 110.438 142 110.438C67.9673 110.438 7.952 144.972 7.952 187.572C7.952 230.173 67.9673 264.707 142 264.707Z" fill="#F2F2F7"/>
<path d="M43.2191 216.353C54.0856 216.353 62.8946 211.267 62.8946 204.993C62.8946 198.719 54.0856 193.633 43.2191 193.633C32.3526 193.633 23.5436 198.719 23.5436 204.993C23.5436 211.267 32.3526 216.353 43.2191 216.353Z" fill="#E0E0E0"/>
<path d="M191.291 249.592C212.409 249.592 229.529 239.708 229.529 227.514C229.529 215.321 212.409 205.436 191.291 205.436C170.173 205.436 153.053 215.321 153.053 227.514C153.053 239.708 170.173 249.592 191.291 249.592Z" fill="#E0E0E0"/>
<path d="M129.135 232.66C171.801 232.66 206.388 212.693 206.388 188.061C206.388 163.429 171.801 143.462 129.135 143.462C86.4688 143.462 51.8811 163.429 51.8811 188.061C51.8811 212.693 86.4688 232.66 129.135 232.66Z" fill="#E0E0E0"/>
<path d="M210.495 213.053L161.727 185.005C161.577 184.955 161.447 184.858 161.355 184.73C161.263 184.602 161.213 184.447 161.213 184.289C161.213 184.131 161.263 183.977 161.355 183.849C161.447 183.721 161.577 183.624 161.727 183.574L216.408 152.016C216.791 151.82 217.216 151.718 217.646 151.718C218.077 151.718 218.501 151.82 218.884 152.016L267.528 180.115C267.678 180.165 267.808 180.261 267.9 180.39C267.992 180.518 268.042 180.672 268.042 180.83C268.042 180.988 267.992 181.142 267.9 181.271C267.808 181.399 267.678 181.495 267.528 181.546L213 213.047C212.613 213.247 212.184 213.351 211.748 213.352C211.313 213.353 210.883 213.25 210.495 213.053Z" fill="#E0E0E0"/>
<path d="M34.6707 74.5859L53.7669 63.2998L40.5154 78.0394L34.6707 74.5859Z" fill="#BA68C8"/>
<path d="M53.7669 63.2998L32.4385 72.2174L26.5995 68.7639L53.7669 63.2998Z" fill="#BA68C8"/>
<path d="M32.4385 72.2174L33.7392 77.7099L34.6707 74.5859L53.7669 63.2998L32.4385 72.2174Z" fill="#BA68C8"/>
<path opacity="0.2" d="M32.4385 72.2174L33.7392 77.7099L34.6707 74.5859L53.7669 63.2998L32.4385 72.2174Z" fill="black"/>
<path d="M33.7392 77.7099L36.619 75.739L34.6707 74.5859L33.7392 77.7099Z" fill="#BA68C8"/>
<path opacity="0.2" d="M34.6707 74.5859L36.619 75.739L36.1589 76.0514L34.6707 74.5859Z" fill="black"/>
<path d="M29.0986 79.3969C28.9964 79.396 28.8986 79.3553 28.826 79.2833C28.7906 79.2484 28.7625 79.2068 28.7433 79.161C28.7242 79.1152 28.7143 79.066 28.7143 79.0163C28.7143 78.9666 28.7242 78.9175 28.7433 78.8716C28.7625 78.8258 28.7906 78.7842 28.826 78.7494C29.2122 78.3915 29.5985 78.0507 29.962 77.744C30.0401 77.6827 30.139 77.6544 30.2377 77.665C30.3363 77.6756 30.427 77.7243 30.4902 77.8008C30.5213 77.8392 30.5445 77.8833 30.5584 77.9307C30.5724 77.978 30.5768 78.0276 30.5716 78.0767C30.5663 78.1258 30.5514 78.1734 30.5277 78.2167C30.504 78.26 30.4719 78.2982 30.4334 78.329C30.0699 78.6244 29.695 78.9482 29.2974 79.3003C29.2424 79.3518 29.1731 79.3854 29.0986 79.3969Z" fill="#E0E0E0"/>
<path d="M57.1465 122.355C56.4081 122.355 55.6754 122.355 54.9597 122.315C54.9104 122.313 54.862 122.302 54.8171 122.282C54.7721 122.262 54.7316 122.233 54.6979 122.197C54.6641 122.161 54.6378 122.119 54.6203 122.073C54.6029 122.027 54.5947 121.978 54.5962 121.929C54.6006 121.83 54.6434 121.736 54.7155 121.669C54.7876 121.601 54.8834 121.564 54.9824 121.565C55.9423 121.599 56.9193 121.611 57.919 121.599C58.0184 121.599 58.1137 121.639 58.184 121.709C58.2543 121.779 58.2938 121.875 58.2938 121.974C58.2938 122.074 58.2543 122.169 58.184 122.239C58.1137 122.31 58.0184 122.349 57.919 122.349L57.1465 122.355ZM60.3841 122.275C60.2847 122.275 60.1893 122.236 60.119 122.165C60.0487 122.095 60.0092 122 60.0092 121.9C60.0092 121.801 60.0487 121.706 60.119 121.635C60.1893 121.565 60.2847 121.525 60.3841 121.525C61.344 121.48 62.3323 121.412 63.315 121.327C63.4138 121.32 63.5114 121.352 63.5875 121.415C63.6637 121.479 63.7125 121.569 63.7239 121.667C63.7286 121.717 63.7235 121.766 63.7089 121.814C63.6942 121.861 63.6704 121.905 63.6387 121.943C63.607 121.981 63.5681 122.012 63.5243 122.035C63.4804 122.058 63.4324 122.072 63.3831 122.076C62.3891 122.162 61.3894 122.23 60.4182 122.275H60.3841ZM52.5116 122.184C51.5233 122.11 50.5236 122.014 49.5523 121.889C49.5035 121.883 49.4563 121.867 49.4136 121.842C49.3708 121.818 49.3334 121.785 49.3033 121.746C49.2732 121.707 49.2512 121.662 49.2383 121.615C49.2255 121.567 49.2222 121.517 49.2286 121.469C49.2427 121.371 49.2945 121.282 49.373 121.221C49.4515 121.161 49.5505 121.134 49.6489 121.145C50.6088 121.264 51.5858 121.361 52.5684 121.435C52.6678 121.435 52.7632 121.474 52.8335 121.544C52.9038 121.615 52.9433 121.71 52.9433 121.809C52.9433 121.909 52.9038 122.004 52.8335 122.075C52.7632 122.145 52.6678 122.184 52.5684 122.184H52.5116ZM65.7801 121.821C65.688 121.815 65.6011 121.776 65.536 121.711C65.471 121.646 65.4323 121.559 65.4273 121.467C65.4224 121.374 65.4516 121.284 65.5094 121.212C65.5671 121.14 65.6493 121.092 65.7403 121.077C66.6946 120.963 67.6715 120.827 68.6542 120.673C68.7528 120.658 68.8534 120.683 68.9339 120.742C69.0143 120.801 69.0679 120.89 69.083 120.989C69.0981 121.087 69.0733 121.188 69.0142 121.268C68.9551 121.349 68.8664 121.402 68.7678 121.418C67.7794 121.571 66.7911 121.707 65.8255 121.821H65.7801ZM47.144 121.531H47.0815C46.0875 121.355 45.1049 121.156 44.162 120.935C44.1105 120.927 44.061 120.909 44.0168 120.882C43.9725 120.855 43.9345 120.818 43.9051 120.775C43.8757 120.732 43.8556 120.684 43.846 120.632C43.8364 120.581 43.8376 120.529 43.8495 120.478C43.8614 120.427 43.8837 120.38 43.915 120.338C43.9463 120.296 43.9859 120.262 44.0314 120.236C44.0768 120.211 44.127 120.195 44.1789 120.19C44.2307 120.185 44.283 120.191 44.3324 120.208C45.2639 120.424 46.2295 120.622 47.2065 120.776C47.3048 120.794 47.3921 120.85 47.4495 120.931C47.5069 121.013 47.5298 121.114 47.5132 121.213C47.4997 121.301 47.455 121.382 47.3873 121.44C47.3196 121.499 47.2334 121.531 47.144 121.531ZM41.8616 120.344C41.8278 120.35 41.7932 120.35 41.7594 120.344C40.7938 120.066 39.8452 119.776 38.9194 119.418C38.8731 119.401 38.8306 119.375 38.7944 119.342C38.7582 119.308 38.7289 119.268 38.7083 119.223C38.6878 119.178 38.6762 119.129 38.6744 119.08C38.6726 119.031 38.6806 118.982 38.6978 118.935C38.7143 118.889 38.7398 118.847 38.7728 118.811C38.8058 118.775 38.8456 118.745 38.89 118.725C38.9344 118.704 38.9825 118.693 39.0314 118.691C39.0803 118.689 39.1291 118.697 39.175 118.714C40.0781 119.043 41.0153 119.35 41.9582 119.623C42.0056 119.636 42.0498 119.659 42.0884 119.69C42.1269 119.721 42.159 119.759 42.1827 119.802C42.2065 119.846 42.2214 119.893 42.2268 119.942C42.2321 119.991 42.2277 120.041 42.2138 120.088C42.1905 120.163 42.1436 120.229 42.0802 120.275C42.0167 120.321 41.94 120.345 41.8616 120.344ZM36.7496 118.515C36.7009 118.525 36.6506 118.525 36.6019 118.515C35.6818 118.112 34.7786 117.674 33.9153 117.22C33.8278 117.172 33.7627 117.091 33.734 116.996C33.7053 116.9 33.7153 116.797 33.7619 116.709C33.8089 116.622 33.8884 116.557 33.9831 116.528C34.0778 116.499 34.18 116.509 34.2674 116.555C35.1138 117.004 35.9714 117.43 36.903 117.828C36.9481 117.847 36.9889 117.876 37.0231 117.911C37.0572 117.947 37.084 117.989 37.102 118.035C37.1199 118.081 37.1286 118.13 37.1276 118.179C37.1266 118.228 37.1159 118.277 37.0961 118.322C37.0596 118.375 37.0102 118.418 36.9526 118.447C36.895 118.476 36.831 118.489 36.7666 118.487L36.7496 118.515ZM31.9557 116.004C31.8854 116.004 31.8166 115.985 31.7569 115.948C30.9049 115.38 30.0529 114.812 29.3031 114.244C29.264 114.214 29.2311 114.177 29.2063 114.134C29.1815 114.091 29.1654 114.044 29.1588 113.996C29.1522 113.947 29.1553 113.897 29.1679 113.85C29.1805 113.802 29.2023 113.757 29.2321 113.718C29.262 113.679 29.2992 113.646 29.3418 113.621C29.3843 113.597 29.4313 113.581 29.4801 113.574C29.5289 113.567 29.5785 113.57 29.6261 113.583C29.6737 113.596 29.7184 113.617 29.7575 113.647C30.513 114.215 31.3195 114.783 32.1602 115.306C32.202 115.332 32.2382 115.366 32.2668 115.406C32.2954 115.446 32.3159 115.492 32.3269 115.54C32.338 115.588 32.3395 115.637 32.3314 115.686C32.3232 115.734 32.3056 115.781 32.2794 115.823C32.2436 115.87 32.1972 115.909 32.144 115.935C32.0908 115.962 32.0322 115.976 31.9727 115.976L31.9557 116.004ZM27.6389 112.75C27.5445 112.752 27.453 112.717 27.3833 112.653C26.6414 111.985 25.9379 111.276 25.276 110.529C25.2103 110.453 25.177 110.355 25.1834 110.255C25.1898 110.155 25.2353 110.062 25.3101 109.995C25.3847 109.93 25.4822 109.897 25.5812 109.903C25.6803 109.909 25.7727 109.955 25.8383 110.029C26.4813 110.757 27.1659 111.448 27.8888 112.097C27.9589 112.168 27.9981 112.264 27.9981 112.364C27.9981 112.463 27.9589 112.559 27.8888 112.631C27.8236 112.686 27.7416 112.718 27.6559 112.721L27.6389 112.75ZM24.0264 108.728C23.9667 108.73 23.9076 108.716 23.8542 108.689C23.8007 108.663 23.7546 108.624 23.7197 108.575C23.1375 107.749 22.6137 106.884 22.152 105.985C22.1094 105.897 22.1026 105.796 22.1332 105.704C22.1638 105.611 22.2294 105.534 22.3159 105.489C22.4024 105.444 22.5031 105.434 22.5966 105.462C22.6901 105.49 22.769 105.553 22.8166 105.638C23.2663 106.496 23.775 107.322 24.3388 108.109C24.3724 108.165 24.3909 108.229 24.3924 108.294C24.394 108.359 24.3785 108.423 24.3475 108.481C24.3166 108.538 24.2712 108.586 24.2159 108.621C24.1605 108.655 24.0972 108.675 24.0321 108.677L24.0264 108.728ZM21.4874 103.963C21.4101 103.963 21.3348 103.938 21.2718 103.894C21.2087 103.849 21.161 103.786 21.1353 103.713C20.8774 103.005 20.6705 102.28 20.5162 101.543C20.4594 101.293 20.4139 101.043 20.3742 100.793C20.3633 100.744 20.3626 100.693 20.3722 100.643C20.3817 100.593 20.4013 100.546 20.4297 100.504C20.458 100.461 20.4947 100.426 20.5373 100.398C20.58 100.371 20.6278 100.352 20.6778 100.344C20.7278 100.335 20.7791 100.337 20.8284 100.349C20.8777 100.361 20.9241 100.383 20.9648 100.413C21.0054 100.443 21.0395 100.482 21.0649 100.526C21.0903 100.569 21.1065 100.618 21.1126 100.668C21.1542 100.907 21.1997 101.146 21.2489 101.384C21.3942 102.088 21.5839 102.783 21.8169 103.463C21.834 103.509 21.8419 103.558 21.8401 103.607C21.8382 103.656 21.8266 103.704 21.806 103.748C21.7854 103.792 21.7561 103.832 21.72 103.865C21.6838 103.898 21.6415 103.924 21.5954 103.94C21.565 103.942 21.5344 103.94 21.5045 103.934L21.4874 103.963ZM20.4934 98.6634C20.396 98.6635 20.3023 98.6256 20.2323 98.5577C20.1623 98.4898 20.1215 98.3974 20.1186 98.2999C20.1186 98.0614 20.1186 97.8228 20.1186 97.5842C20.1186 96.8252 20.1604 96.0667 20.2435 95.3122C20.2563 95.2142 20.3068 95.1251 20.3841 95.0636C20.4615 95.0021 20.5598 94.9731 20.6582 94.9828C20.7536 94.9871 20.8438 95.0278 20.9103 95.0964C20.9769 95.165 21.0147 95.2564 21.016 95.352C20.9322 96.0836 20.8905 96.8194 20.891 97.5558C20.891 97.783 20.891 98.0159 20.891 98.2431C20.8941 98.3431 20.8577 98.4403 20.7897 98.5136C20.7216 98.587 20.6275 98.6306 20.5275 98.635L20.4934 98.6634ZM21.0217 93.2845H20.9365C20.8403 93.2615 20.757 93.2015 20.7049 93.1174C20.6528 93.0334 20.636 92.9321 20.6582 92.8358C20.8799 91.8591 21.1625 90.8973 21.5045 89.956C21.5409 89.866 21.6108 89.7937 21.6994 89.7542C21.7881 89.7147 21.8886 89.7111 21.9799 89.7442C22.0711 89.7773 22.146 89.8445 22.1887 89.9317C22.2314 90.0189 22.2386 90.1192 22.2088 90.2116C21.8796 91.1242 21.6046 92.0555 21.3852 93.0005C21.3603 93.0777 21.3107 93.1447 21.2439 93.1909C21.1772 93.2371 21.0971 93.26 21.016 93.2561L21.0217 93.2845ZM22.7995 88.1725C22.7447 88.172 22.6906 88.1604 22.6405 88.1384C22.5509 88.0953 22.4818 88.0189 22.4478 87.9255C22.4138 87.8321 22.4177 87.7291 22.4587 87.6386C22.879 86.7468 23.3505 85.8607 23.8674 84.9974C23.893 84.9551 23.9267 84.9183 23.9666 84.8892C24.0065 84.86 24.0518 84.839 24.0998 84.8274C24.1478 84.8158 24.1977 84.8138 24.2465 84.8215C24.2953 84.8292 24.3421 84.8465 24.3842 84.8724C24.4263 84.8975 24.463 84.9307 24.4921 84.9701C24.5212 85.0095 24.5422 85.0542 24.5538 85.1018C24.5654 85.1494 24.5675 85.1988 24.5598 85.2472C24.5522 85.2956 24.535 85.3419 24.5092 85.3836C24.0094 86.2242 23.5493 87.0876 23.1403 87.9566C23.1082 88.0146 23.0614 88.0629 23.0045 88.0969C22.9476 88.1308 22.8828 88.149 22.8166 88.1498L22.7995 88.1725ZM25.56 83.4865C25.4909 83.4862 25.4231 83.4668 25.3643 83.4305C25.3055 83.3942 25.2579 83.3423 25.2267 83.2805C25.1956 83.2188 25.1821 83.1497 25.1878 83.0808C25.1935 83.0119 25.2181 82.9459 25.259 82.8901C25.827 82.0722 26.4688 81.2826 27.1163 80.5442C27.1491 80.5069 27.189 80.4765 27.2336 80.4546C27.2782 80.4327 27.3266 80.4198 27.3762 80.4166C27.4258 80.4135 27.4755 80.4201 27.5225 80.4361C27.5696 80.4522 27.6129 80.4773 27.6502 80.5102C27.6875 80.543 27.718 80.5828 27.7399 80.6274C27.7618 80.672 27.7747 80.7205 27.7779 80.7701C27.781 80.8196 27.7744 80.8694 27.7583 80.9164C27.7423 80.9634 27.7171 81.0068 27.6843 81.0441C27.0538 81.7598 26.4461 82.5322 25.8724 83.3161C25.8385 83.3681 25.7922 83.411 25.7377 83.4407C25.6832 83.4705 25.6221 83.4862 25.56 83.4865Z" fill="#E0E0E0"/>
<path d="M71.1704 121.003C71.0763 121.004 70.9854 120.969 70.9157 120.906C70.8459 120.843 70.8024 120.756 70.7939 120.662C70.7853 120.569 70.8122 120.475 70.8694 120.4C70.9265 120.326 71.0096 120.275 71.1022 120.259C71.5907 120.168 72.0792 120.077 72.5734 119.975C72.6713 119.955 72.773 119.975 72.8561 120.031C72.9391 120.086 72.9968 120.172 73.0164 120.27C73.036 120.368 73.0159 120.47 72.9605 120.553C72.9051 120.636 72.819 120.694 72.721 120.713L71.2386 120.997L71.1704 121.003Z" fill="#E0E0E0"/>
<path d="M202.799 83.9806L225.28 72.7399L234.238 76.6989L202.799 83.9806Z" fill="#BA68C8"/>
<path d="M202.799 83.9806L222.605 70.7406L219.055 65.6456L202.799 83.9806Z" fill="#BA68C8"/>
<path d="M222.605 70.7406L222.23 74.2622L202.799 83.9806L222.605 70.7406Z" fill="#BA68C8"/>
<path opacity="0.2" d="M222.605 70.7406L222.23 74.2622L202.799 83.9806L222.605 70.7406Z" fill="black"/>
<path d="M225.712 70.7008C225.656 70.7002 225.601 70.6871 225.551 70.6626C225.501 70.638 225.457 70.6025 225.422 70.5588C225.391 70.5204 225.368 70.4763 225.354 70.429C225.34 70.3816 225.336 70.332 225.341 70.2829C225.346 70.2338 225.361 70.1862 225.385 70.1429C225.408 70.0996 225.44 70.0615 225.479 70.0306L225.74 70.3032L225.95 70.6156C225.883 70.67 225.799 70.7 225.712 70.7008ZM227.609 68.9968C227.512 68.9961 227.419 68.9597 227.348 68.8946C227.278 68.8243 227.239 68.7294 227.239 68.6304C227.239 68.5315 227.278 68.4365 227.348 68.3663C228.026 67.6596 228.635 66.8892 229.165 66.0659C229.22 65.9823 229.305 65.9237 229.402 65.9029C229.5 65.8821 229.601 65.9009 229.685 65.9552C229.769 66.0094 229.827 66.0946 229.848 66.1921C229.869 66.2895 229.85 66.3913 229.796 66.4749C229.238 67.3352 228.601 68.1415 227.893 68.8832C227.859 68.9255 227.815 68.9596 227.766 68.9832C227.717 69.0067 227.663 69.0192 227.609 69.0195V68.9968ZM230.67 64.4528C230.618 64.4524 230.565 64.4408 230.517 64.4187C230.472 64.3991 230.431 64.3706 230.397 64.3349C230.363 64.2993 230.337 64.2572 230.319 64.2111C230.302 64.1651 230.294 64.116 230.296 64.0668C230.297 64.0176 230.309 63.9692 230.33 63.9246C230.738 63.0318 231.07 62.1065 231.324 61.1584C231.336 61.1107 231.358 61.0659 231.388 61.0268C231.418 60.9877 231.456 60.955 231.499 60.9307C231.541 60.9063 231.589 60.8908 231.638 60.885C231.687 60.8793 231.736 60.8834 231.784 60.8971C231.832 60.9097 231.876 60.9315 231.916 60.9615C231.955 60.9914 231.988 61.0288 232.013 61.0716C232.038 61.1144 232.054 61.1616 232.06 61.2106C232.067 61.2597 232.064 61.3095 232.051 61.3572C231.782 62.3434 231.434 63.3064 231.011 64.237C230.984 64.3059 230.938 64.3654 230.877 64.4078C230.816 64.4503 230.744 64.4739 230.67 64.4755V64.4528ZM232.176 59.1818H232.125C232.027 59.1676 231.938 59.1158 231.877 59.0373C231.817 58.9588 231.789 58.8599 231.801 58.7614C231.915 57.92 231.972 57.0717 231.971 56.2225C231.971 56.0918 231.971 55.9555 231.971 55.8249C231.97 55.7752 231.978 55.7257 231.996 55.6792C232.014 55.6328 232.041 55.5904 232.075 55.5544C232.109 55.5185 232.15 55.4897 232.196 55.4699C232.242 55.45 232.291 55.4394 232.34 55.4386C232.439 55.4386 232.533 55.4773 232.604 55.5464C232.674 55.6155 232.714 55.7094 232.715 55.8078C232.715 55.9442 232.715 56.0862 232.715 56.2225C232.717 57.104 232.658 57.9845 232.539 58.858C232.532 58.9505 232.491 59.0371 232.424 59.1011C232.357 59.1651 232.268 59.2019 232.176 59.2045V59.1818ZM232.136 53.6892C232.046 53.6902 231.958 53.6586 231.889 53.6002C231.82 53.5418 231.775 53.4604 231.761 53.3711C231.623 52.3967 231.413 51.4341 231.131 50.4914C231.103 50.3957 231.114 50.2929 231.162 50.2055C231.21 50.1182 231.291 50.0535 231.386 50.0256C231.482 49.9977 231.585 50.009 231.672 50.0569C231.759 50.1049 231.824 50.1855 231.852 50.2812C232.142 51.2579 232.361 52.2546 232.505 53.2632C232.512 53.3121 232.51 53.3619 232.498 53.4098C232.486 53.4577 232.464 53.5027 232.435 53.5423C232.405 53.5819 232.368 53.6153 232.326 53.6405C232.283 53.6657 232.236 53.6822 232.187 53.6892H232.136ZM230.642 48.4125C230.568 48.4129 230.496 48.3915 230.435 48.3511C230.373 48.3107 230.325 48.253 230.296 48.1853C229.91 47.2798 229.46 46.4029 228.949 45.5611C228.924 45.519 228.906 45.4722 228.899 45.4234C228.891 45.3746 228.893 45.3247 228.904 45.2767C228.916 45.2287 228.937 45.1834 228.966 45.1435C228.995 45.1036 229.032 45.0699 229.074 45.0442C229.117 45.0186 229.164 45.0016 229.213 44.9943C229.262 44.987 229.312 44.9895 229.36 45.0017C229.408 45.0138 229.453 45.0354 229.493 45.0651C229.533 45.0948 229.566 45.1322 229.591 45.1749C230.12 46.0443 230.587 46.9496 230.989 47.8842C231.008 47.9297 231.019 47.9786 231.019 48.0281C231.02 48.0777 231.011 48.1268 230.992 48.1728C230.974 48.2187 230.946 48.2605 230.912 48.2958C230.877 48.3311 230.835 48.3592 230.79 48.3784C230.746 48.4091 230.695 48.4285 230.642 48.4352V48.4125ZM227.859 43.6754C227.802 43.6765 227.746 43.6642 227.694 43.6395C227.643 43.6149 227.598 43.5785 227.564 43.5334C226.962 42.7504 226.311 42.0067 225.615 41.3068C225.545 41.236 225.506 41.1403 225.507 41.0407C225.507 40.9411 225.547 40.8458 225.618 40.7757C225.689 40.7057 225.785 40.6666 225.884 40.6671C225.984 40.6677 226.079 40.7078 226.149 40.7786C226.865 41.4925 227.535 42.2513 228.154 43.0506C228.199 43.1053 228.227 43.1717 228.235 43.2418C228.243 43.3119 228.23 43.3828 228.199 43.4462C228.168 43.5095 228.12 43.5626 228.059 43.5992C227.999 43.6358 227.929 43.6544 227.859 43.6526V43.6754ZM224.036 39.7391C223.951 39.7505 223.865 39.7324 223.792 39.688C223.338 39.3131 222.861 38.9496 222.378 38.6031C222.06 38.3759 221.736 38.1544 221.401 37.9329C221.36 37.9057 221.324 37.8706 221.297 37.8298C221.269 37.7889 221.25 37.743 221.241 37.6948C221.231 37.6465 221.231 37.5968 221.24 37.5485C221.25 37.5002 221.268 37.4542 221.296 37.4132C221.323 37.3721 221.358 37.3369 221.399 37.3094C221.44 37.2819 221.486 37.2627 221.534 37.253C221.582 37.2432 221.632 37.2431 221.68 37.2525C221.728 37.262 221.774 37.2809 221.815 37.3081C222.156 37.5296 222.486 37.7568 222.815 37.9954C223.309 38.3475 223.798 38.7224 224.269 39.1314C224.328 39.1814 224.37 39.2481 224.39 39.3226C224.41 39.3972 224.407 39.476 224.381 39.5487C224.355 39.6214 224.308 39.6846 224.245 39.7297C224.183 39.7749 224.108 39.7999 224.031 39.8016L224.036 39.7391ZM219.492 36.6719C219.429 36.6738 219.366 36.658 219.31 36.6265C218.47 36.1607 217.578 35.7177 216.652 35.2974C216.57 35.252 216.507 35.1771 216.477 35.0877C216.447 34.9983 216.452 34.9008 216.491 34.8148C216.529 34.7288 216.599 34.6606 216.686 34.6237C216.773 34.5868 216.87 34.5839 216.959 34.6158C217.902 35.0361 218.816 35.4962 219.674 35.9676C219.747 36.0075 219.806 36.0708 219.839 36.1475C219.872 36.2241 219.879 36.3098 219.858 36.3907C219.837 36.4717 219.79 36.5433 219.724 36.5943C219.657 36.6452 219.576 36.6726 219.492 36.6719ZM214.494 34.3999C214.451 34.4073 214.406 34.4073 214.363 34.3999C213.454 34.0534 212.506 33.7297 211.523 33.4343C211.428 33.4042 211.349 33.3379 211.302 33.2497C211.255 33.1616 211.245 33.0585 211.273 32.9629C211.288 32.9158 211.312 32.8722 211.344 32.8345C211.376 32.7967 211.415 32.7656 211.458 32.7429C211.502 32.7202 211.55 32.7064 211.599 32.7022C211.648 32.6981 211.698 32.7036 211.745 32.7186C212.722 33.0197 213.682 33.3491 214.585 33.7013C214.677 33.7369 214.752 33.8077 214.792 33.8981C214.833 33.9886 214.836 34.0914 214.801 34.1841C214.771 34.2467 214.724 34.2999 214.666 34.3379C214.608 34.376 214.541 34.3974 214.471 34.3999H214.494ZM209.246 32.747H209.155C208.212 32.5028 207.235 32.2813 206.241 32.0825C206.15 32.0567 206.072 31.9976 206.023 31.917C205.974 31.8364 205.957 31.7403 205.976 31.6479C205.995 31.5554 206.047 31.4733 206.124 31.4181C206.2 31.3628 206.295 31.3384 206.388 31.3498C207.394 31.5486 208.388 31.7758 209.342 32.02C209.431 32.0424 209.509 32.0968 209.561 32.1728C209.612 32.2487 209.634 32.3411 209.622 32.4322C209.61 32.5233 209.565 32.6068 209.496 32.667C209.427 32.7271 209.337 32.7597 209.246 32.7584V32.747ZM179.011 32.6789C178.928 32.6792 178.847 32.652 178.782 32.6017C178.716 32.5513 178.669 32.4806 178.647 32.4006C178.623 32.3034 178.638 32.2007 178.689 32.1146C178.74 32.0284 178.823 31.9659 178.92 31.9405C179.874 31.6962 180.868 31.469 181.868 31.2759C181.916 31.2652 181.966 31.2645 182.015 31.2737C182.063 31.2829 182.109 31.3019 182.15 31.3296C182.191 31.3572 182.226 31.3929 182.253 31.4344C182.279 31.476 182.297 31.5226 182.305 31.5713C182.324 31.6684 182.303 31.7688 182.248 31.8507C182.192 31.9326 182.107 31.9894 182.01 32.0086C181.027 32.2018 180.05 32.4233 179.107 32.6675C179.069 32.6797 179.028 32.6836 178.988 32.6789H179.011ZM203.85 31.6451H203.793C202.827 31.4974 201.833 31.3668 200.833 31.2589C200.782 31.2566 200.732 31.2439 200.686 31.2215C200.64 31.1991 200.599 31.1675 200.566 31.1287C200.532 31.0899 200.507 31.0447 200.492 30.9958C200.477 30.9469 200.472 30.8954 200.477 30.8445C200.483 30.7936 200.499 30.7444 200.524 30.6998C200.549 30.6553 200.583 30.6164 200.624 30.5855C200.665 30.5546 200.711 30.5324 200.761 30.5202C200.811 30.5081 200.863 30.5062 200.913 30.5148C201.924 30.6227 202.929 30.7534 203.906 30.9067C203.955 30.9137 204.002 30.9302 204.045 30.9554C204.087 30.9806 204.124 31.014 204.154 31.0536C204.184 31.0932 204.205 31.1382 204.217 31.1861C204.229 31.234 204.232 31.2838 204.224 31.3327C204.208 31.4244 204.158 31.5069 204.085 31.5645C204.012 31.6221 203.92 31.6508 203.827 31.6451H203.85ZM184.401 31.5883C184.312 31.588 184.226 31.5558 184.158 31.4975C184.09 31.4391 184.046 31.3586 184.032 31.2702C184.025 31.2214 184.027 31.1715 184.039 31.1236C184.051 31.0757 184.073 31.0307 184.102 30.9911C184.132 30.9515 184.169 30.9182 184.212 30.893C184.254 30.8678 184.301 30.8512 184.35 30.8442C185.327 30.6966 186.338 30.5659 187.343 30.4637C187.393 30.4588 187.442 30.4637 187.49 30.4781C187.537 30.4924 187.581 30.516 187.619 30.5474C187.658 30.5788 187.689 30.6174 187.713 30.661C187.736 30.7046 187.75 30.7524 187.755 30.8016C187.76 30.8509 187.755 30.9006 187.741 30.9479C187.726 30.9952 187.703 31.0393 187.672 31.0775C187.64 31.1158 187.602 31.1475 187.558 31.1708C187.514 31.1941 187.467 31.2086 187.417 31.2134C186.423 31.31 185.429 31.435 184.458 31.5826L184.401 31.5883ZM198.38 31.0203H198.351C197.363 30.9522 196.363 30.9124 195.369 30.8897C195.269 30.8867 195.175 30.8445 195.106 30.7722C195.036 30.7 194.999 30.6034 195 30.5034C195.003 30.405 195.045 30.3117 195.116 30.2437C195.187 30.1757 195.282 30.1384 195.381 30.1399C196.38 30.1399 197.397 30.2024 198.397 30.2706C198.496 30.2706 198.592 30.3101 198.662 30.3804C198.732 30.4507 198.772 30.546 198.772 30.6454C198.772 30.7449 198.732 30.8402 198.662 30.9105C198.592 30.9808 198.496 31.0203 198.397 31.0203H198.38ZM189.86 31.0203C189.764 31.0219 189.671 30.986 189.601 30.9203C189.531 30.8545 189.489 30.7641 189.485 30.6682C189.48 30.5691 189.514 30.472 189.58 30.3978C189.646 30.3235 189.738 30.2779 189.837 30.2706C190.831 30.2138 191.848 30.174 192.853 30.157C192.951 30.157 193.046 30.1957 193.116 30.2647C193.186 30.3338 193.226 30.4277 193.228 30.5262C193.229 30.5756 193.221 30.6248 193.203 30.6709C193.185 30.7171 193.158 30.7591 193.124 30.7946C193.089 30.8301 193.048 30.8583 193.003 30.8776C192.957 30.8968 192.908 30.9067 192.859 30.9067C191.865 30.9067 190.859 30.9635 189.877 31.0203H189.86Z" fill="#E0E0E0"/>
<path d="M254.504 184.772L247.62 180.802L254.504 178.814V184.772Z" fill="#BA68C8"/>
<g opacity="0.3">
<path d="M254.504 184.772L247.62 180.802L254.504 178.814V184.772Z" fill="black"/>
</g>
<path d="M220.02 198.722V205.061L174.615 178.882V172.543L220.02 198.722Z" fill="#BA68C8"/>
<g opacity="0.3">
<path d="M220.02 198.722V205.061L174.615 178.882V172.543L220.02 198.722Z" fill="black"/>
</g>
<path d="M171.172 122.855L216.578 149.034V200.71L171.172 174.531V122.855Z" fill="#BA68C8"/>
<g opacity="0.2">
<path d="M171.172 122.855L216.578 149.034V200.71L171.172 174.531V122.855Z" fill="black"/>
</g>
<path d="M216.578 149.034L261.388 123.161V174.838L216.578 200.71V149.034Z" fill="#BA68C8"/>
<path opacity="0.1" d="M216.578 149.034L261.388 123.161V174.838L216.578 200.71V149.034Z" fill="black"/>
<path d="M261.388 123.161L215.982 96.9822L171.172 122.855L216.578 149.034L261.388 123.161Z" fill="#BA68C8"/>
<path d="M220.02 151.022L257.946 129.125V141.048L220.02 162.95V151.022Z" fill="#BA68C8"/>
<g opacity="0.5">
<path d="M220.02 151.022L257.946 129.125V141.048L220.02 162.95V151.022Z" fill="white"/>
</g>
<path d="M220.02 166.926L257.946 145.024V172.85L220.02 194.746V166.926Z" fill="#BA68C8"/>
<g opacity="0.3">
<path d="M220.02 166.926L257.946 145.024V172.85L220.02 194.746V166.926Z" fill="black"/>
</g>
<path d="M220.02 205.061L223.463 203.073V196.734L220.02 198.722V205.061Z" fill="#BA68C8"/>
<path d="M254.504 184.772L257.946 182.784V176.826L254.504 178.814V184.772Z" fill="#BA68C8"/>
<path d="M231.772 146.75C231.772 147.318 233.414 146.796 235.442 145.614L241.871 141.928C243.899 140.758 245.541 139.366 245.541 138.815V137.821L231.772 145.773V146.75Z" fill="#455A64"/>
<path opacity="0.1" d="M257.946 172.85L234.01 158.843L220.02 166.926V194.746L257.946 172.85Z" fill="black"/>
<g opacity="0.15">
<path d="M235.396 118.992C232.267 120.804 232.267 123.735 235.396 125.541C238.526 127.347 243.61 127.353 246.756 125.541C249.903 123.729 249.892 120.804 246.756 118.992C243.621 117.18 238.56 117.186 235.396 118.992Z" fill="black"/>
</g>
<path d="M246.239 122.735C249.006 119.895 250.63 112.863 247.943 110.626H234.203C231.511 112.863 233.13 119.907 235.907 122.73L235.981 122.809L236.078 122.9C236.157 122.98 236.241 123.056 236.328 123.127L236.396 123.178L236.606 123.332C236.72 123.418 236.839 123.496 236.964 123.565C238.24 124.213 239.651 124.551 241.082 124.551C242.513 124.551 243.924 124.213 245.2 123.565C245.326 123.494 245.447 123.417 245.563 123.332C245.632 123.286 245.694 123.235 245.757 123.184L245.836 123.122C245.921 123.053 246.001 122.98 246.08 122.906L246.188 122.798C246.207 122.778 246.224 122.757 246.239 122.735Z" fill="#EBEBEB"/>
<path d="M235.396 109.722C232.267 111.534 232.267 114.465 235.396 116.271C238.526 118.078 243.61 118.083 246.756 116.271C249.903 114.46 249.892 111.534 246.756 109.722C243.621 107.91 238.56 107.916 235.396 109.722Z" fill="#FAFAFA"/>
<path d="M237.617 111.006C235.714 112.108 235.714 113.892 237.617 114.982C238.686 115.525 239.869 115.809 241.068 115.809C242.267 115.809 243.449 115.525 244.518 114.982C246.427 113.886 246.427 112.102 244.518 111.006C243.449 110.463 242.267 110.18 241.068 110.18C239.869 110.18 238.686 110.463 237.617 111.006Z" fill="#EBEBEB"/>
<path d="M244.518 112.898C243.449 112.354 242.267 112.071 241.068 112.071C239.869 112.071 238.686 112.354 237.617 112.898C237.159 113.149 236.769 113.507 236.481 113.943C236.768 114.379 237.158 114.738 237.617 114.988C238.686 115.531 239.869 115.814 241.068 115.814C242.267 115.814 243.449 115.531 244.518 114.988C244.98 114.742 245.371 114.382 245.654 113.943C245.369 113.505 244.978 113.145 244.518 112.898Z" fill="#E0E0E0"/>
<path d="M237.708 113.88C236.637 112.796 235.716 111.574 234.97 110.245C233.704 108.007 233.471 105.014 234.124 104.644C234.777 104.275 237.424 107.28 237.424 107.28C237.183 106.023 237.09 104.742 237.146 103.463C237.259 101.475 237.742 99.6631 238.316 99.2996C238.889 98.9361 240.162 101.447 240.707 103.276C241.252 105.105 241.582 106.593 241.582 106.593C241.799 105.174 242.126 103.775 242.559 102.407C243.223 100.515 243.825 100.089 244.291 100.277C244.757 100.464 245.069 101.344 245.206 103.861C245.252 105.062 245.214 106.266 245.092 107.462C245.092 107.462 246.029 106.428 247.069 105.428C248.205 104.332 248.705 104.179 249.028 104.389C249.352 104.599 249.449 106.309 247.676 109.501C246.796 111.131 245.668 112.614 244.331 113.897C244.331 113.897 241.894 115.459 237.708 113.88Z" fill="#BA68C8"/>
<g opacity="0.25">
<path d="M237.708 113.88C236.637 112.796 235.716 111.574 234.97 110.245C233.704 108.007 233.471 105.014 234.124 104.644C234.777 104.275 237.424 107.28 237.424 107.28C237.183 106.023 237.09 104.742 237.146 103.463C237.259 101.475 237.742 99.6631 238.316 99.2996C238.889 98.9361 240.162 101.447 240.707 103.276C241.252 105.105 241.582 106.593 241.582 106.593C241.799 105.174 242.126 103.775 242.559 102.407C243.223 100.515 243.825 100.089 244.291 100.277C244.757 100.464 245.069 101.344 245.206 103.861C245.252 105.062 245.214 106.266 245.092 107.462C245.092 107.462 246.029 106.428 247.069 105.428C248.205 104.332 248.705 104.179 249.028 104.389C249.352 104.599 249.449 106.309 247.676 109.501C246.796 111.131 245.668 112.614 244.331 113.897C244.331 113.897 241.894 115.459 237.708 113.88Z" fill="black"/>
</g>
<path opacity="0.1" d="M239.321 109.416C239.321 109.416 237.543 104.713 237.435 101.299C237.29 102.007 237.197 102.724 237.157 103.446C237.096 104.73 237.186 106.017 237.424 107.28C237.424 107.28 238.424 108.91 239.321 109.416Z" fill="black"/>
<path opacity="0.1" d="M242.121 114.539C240.772 114.31 239.489 113.784 238.367 113C236.612 111.688 234.039 107.541 233.772 105.883C233.819 107.411 234.23 108.907 234.97 110.245C235.716 111.574 236.637 112.796 237.708 113.88C239.106 114.446 240.619 114.672 242.121 114.539Z" fill="black"/>
<path d="M229.648 129.591L212.818 139.264L189.445 125.774L206.275 116.095L229.648 129.591Z" fill="#455A64"/>
<path d="M212.659 138.651L228.984 129.21C228.632 128.045 228.657 126.799 229.057 125.649L212.818 135.004C212.818 135.004 212.557 135.862 212.659 138.651Z" fill="#F5F5F5"/>
<path d="M213.517 133.891C213.135 134.14 212.817 134.475 212.589 134.87C212.361 135.265 212.229 135.708 212.205 136.163V138.815C212.205 139.65 212.773 139.991 213.517 139.571L229.648 130.25V129.591L213.693 138.764C213.261 139.014 212.909 138.81 212.909 138.31V135.85C212.924 135.577 213.003 135.311 213.141 135.074C213.278 134.837 213.469 134.636 213.699 134.487L229.637 125.308V124.564L213.517 133.891Z" fill="#263238"/>
<path d="M229.648 124.57L206.275 111.074L190.144 120.401C189.762 120.65 189.444 120.985 189.216 121.38C188.988 121.775 188.856 122.218 188.832 122.673V125.331C188.815 125.494 188.842 125.658 188.91 125.807C188.978 125.955 189.084 126.083 189.218 126.177L212.591 139.656C212.457 139.561 212.351 139.432 212.283 139.282C212.215 139.133 212.188 138.968 212.205 138.804V136.151C212.231 135.697 212.363 135.254 212.591 134.859C212.819 134.465 213.136 134.129 213.517 133.879L229.648 124.57Z" fill="#455A64"/>
<path d="M212.585 134.868C212.348 135.259 212.215 135.705 212.199 136.163V138.815C212.182 138.979 212.209 139.144 212.277 139.294C212.345 139.443 212.451 139.572 212.585 139.667L189.212 126.172C189.078 126.078 188.972 125.95 188.904 125.801C188.836 125.652 188.809 125.488 188.826 125.325V122.667C188.842 122.211 188.975 121.767 189.212 121.378L212.585 134.868Z" fill="#37474F"/>
<path d="M80.3663 85.1284C67.3591 92.6373 46.6669 107.559 46.6669 139.605C46.6669 171.652 68.2054 197.058 97.2189 207.703C112.737 213.383 137.325 215.581 156.064 205.999C172.354 197.661 183.328 189.089 189.303 173.526C199.323 147.432 189.303 127.308 174.319 116.499C159.335 105.69 153.235 101.612 140.466 89.5247C133.986 83.3903 124.301 79.2666 114.071 78.1249C102.384 76.9454 90.6165 79.3905 80.3663 85.1284Z" fill="#BA68C8"/>
<path opacity="0.6" d="M80.3663 85.1284C67.3591 92.6373 46.6669 107.559 46.6669 139.605C46.6669 171.652 68.2054 197.058 97.2189 207.703C112.737 213.383 137.325 215.581 156.064 205.999C172.354 197.661 183.328 189.089 189.303 173.526C199.323 147.432 189.303 127.308 174.319 116.499C159.335 105.69 153.235 101.612 140.466 89.5247C133.986 83.3903 124.301 79.2666 114.071 78.1249C102.384 76.9454 90.6165 79.3905 80.3663 85.1284Z" fill="white"/>
<path opacity="0.15" d="M83.7345 192.111C58.0325 171.169 56.1922 137.912 62.5368 117.612C69.1767 96.363 89.2669 80.3909 114.077 78.0962C112.279 77.9056 110.472 77.807 108.664 77.8008C86.3076 81.3849 67.8987 97.2321 61.6223 117.328C55.1982 137.884 57.0783 171.64 83.1325 192.872C94.2709 201.96 111.112 209.827 124.426 212.547C126.016 212.547 127.613 212.547 129.214 212.496C113.174 210.196 94.7367 201.074 83.7345 192.111Z" fill="#BA68C8"/>
<path opacity="0.05" d="M83.7345 192.111C58.0325 171.169 56.1922 137.912 62.5368 117.612C69.1767 96.363 89.2669 80.3909 114.077 78.0962C112.279 77.9056 110.472 77.807 108.664 77.8008C86.3076 81.3849 67.8987 97.2321 61.6223 117.328C55.1982 137.884 57.0783 171.64 83.1325 192.872C94.2709 201.96 111.112 209.827 124.426 212.547C126.016 212.547 127.613 212.547 129.214 212.496C113.174 210.196 94.7367 201.074 83.7345 192.111Z" fill="black"/>
<path d="M56.6864 205.811C63.616 198.728 67.6715 177.712 60.918 172.083H26.5767C19.8289 177.712 23.8901 198.728 30.8026 205.805L30.9958 205.998C31.0753 206.078 31.1491 206.157 31.2343 206.231C31.4274 206.419 31.6319 206.606 31.8591 206.799L32.0238 206.93C32.1942 207.061 32.359 207.197 32.5464 207.322C32.8337 207.526 33.1313 207.716 33.4382 207.89C39.1182 211.179 48.3595 211.179 54.0566 207.89C54.3652 207.716 54.6648 207.526 54.954 207.322C55.1301 207.197 55.2834 207.078 55.4425 206.953L55.647 206.794C55.8628 206.618 56.0616 206.436 56.249 206.254L56.5274 205.987L56.6864 205.811Z" fill="#37474F"/>
<path d="M29.536 169.828C21.6976 174.372 21.6976 181.688 29.536 186.209C37.3744 190.731 50.0749 190.753 57.936 186.209C65.7971 181.665 65.7744 174.349 57.936 169.828C50.0976 165.307 37.3914 165.301 29.536 169.828Z" fill="#455A64"/>
<path d="M33.3246 172.032C27.5707 175.355 27.5707 180.739 33.3246 184.062C39.0784 187.385 48.4106 187.385 54.1645 184.062C59.9183 180.739 59.924 175.355 54.1645 172.032C48.405 168.709 39.0841 168.681 33.3246 172.032Z" fill="#BA68C8"/>
<g opacity="0.2">
<path d="M33.3246 172.032C27.5707 175.355 27.5707 180.739 33.3246 184.062C39.0784 187.385 48.4106 187.385 54.1645 184.062C59.9183 180.739 59.924 175.355 54.1645 172.032C48.405 168.709 39.0841 168.681 33.3246 172.032Z" fill="white"/>
</g>
<path d="M54.1645 177.712C48.4106 174.389 39.0841 174.389 33.3246 177.712C31.9337 178.466 30.7512 179.553 29.8825 180.876C30.7499 182.198 31.9329 183.283 33.3246 184.034C39.0841 187.357 48.4106 187.357 54.1645 184.034C55.5588 183.285 56.7439 182.199 57.6122 180.876C56.7428 179.552 55.5581 178.465 54.1645 177.712Z" fill="#F5F5F5"/>
<path d="M47.7574 164.762C48.1349 164.031 48.4083 163.251 48.5697 162.444C48.9218 160.513 48.439 158.292 46.8657 157.105C46.2409 156.628 45.4286 156.276 45.1617 155.543C45.0509 155.124 45.0509 154.684 45.1617 154.265C45.4514 152.612 46.008 150.908 45.5479 149.295C45.2949 148.56 44.89 147.886 44.3597 147.317C43.8293 146.749 43.1852 146.298 42.4694 145.995C41.0356 145.397 39.5252 145.004 37.9822 144.825C37.1575 144.735 36.3544 144.505 35.6079 144.143C34.7218 143.649 34.4719 142.769 33.9039 142.002C33.2645 141.15 32.5352 140.369 31.7285 139.673C30.1097 138.23 28.0819 137.038 25.844 137.14C21.175 137.344 21.3 141.366 22.6518 144.41C24.0037 147.455 24.3558 148.449 21.442 151.624C18.5282 154.799 18.5168 158.712 22.01 160.905C25.5032 163.097 27.7582 163.387 26.3779 167.602C25.1454 171.367 24.3842 174.588 27.8661 178.609C30.1381 181.211 33.1882 183.068 37.0393 182.909C38.583 182.79 40.0997 182.438 41.5378 181.864C42.6 181.336 41.8843 180.512 42.2422 179.467L44.5482 172.731C45.1162 170.993 45.599 169.061 46.3829 167.42C46.8032 166.494 47.3201 165.648 47.7574 164.762Z" fill="#BA68C8"/>
<g opacity="0.25">
<path d="M47.7574 164.762C48.1349 164.031 48.4083 163.251 48.5697 162.444C48.9218 160.513 48.439 158.292 46.8657 157.105C46.2409 156.628 45.4286 156.276 45.1617 155.543C45.0509 155.124 45.0509 154.684 45.1617 154.265C45.4514 152.612 46.008 150.908 45.5479 149.295C45.2949 148.56 44.89 147.886 44.3597 147.317C43.8293 146.749 43.1852 146.298 42.4694 145.995C41.0356 145.397 39.5252 145.004 37.9822 144.825C37.1575 144.735 36.3544 144.505 35.6079 144.143C34.7218 143.649 34.4719 142.769 33.9039 142.002C33.2645 141.15 32.5352 140.369 31.7285 139.673C30.1097 138.23 28.0819 137.038 25.844 137.14C21.175 137.344 21.3 141.366 22.6518 144.41C24.0037 147.455 24.3558 148.449 21.442 151.624C18.5282 154.799 18.5168 158.712 22.01 160.905C25.5032 163.097 27.7582 163.387 26.3779 167.602C25.1454 171.367 24.3842 174.588 27.8661 178.609C30.1381 181.211 33.1882 183.068 37.0393 182.909C38.583 182.79 40.0997 182.438 41.5378 181.864C42.6 181.336 41.8843 180.512 42.2422 179.467L44.5482 172.731C45.1162 170.993 45.599 169.061 46.3829 167.42C46.8032 166.494 47.3201 165.648 47.7574 164.762Z" fill="black"/>
</g>
<path d="M41.4072 181.841C41.3389 181.818 41.2796 181.773 41.2379 181.714C41.1961 181.655 41.1739 181.584 41.1743 181.512C41.3731 158.44 28.6783 144.66 28.525 144.524C28.4923 144.492 28.4664 144.454 28.4487 144.412C28.431 144.37 28.4218 144.325 28.4218 144.28C28.4218 144.234 28.431 144.189 28.4487 144.147C28.4664 144.105 28.4923 144.067 28.525 144.035C28.5558 144.002 28.5932 143.976 28.6347 143.957C28.6762 143.939 28.7211 143.93 28.7664 143.93C28.8117 143.93 28.8565 143.939 28.898 143.957C28.9396 143.976 28.9769 144.002 29.0078 144.035C29.1384 144.172 42.0718 158.139 41.8446 181.523C41.8446 181.615 41.8081 181.703 41.7431 181.768C41.6781 181.833 41.59 181.87 41.4981 181.87C41.4666 181.865 41.436 181.855 41.4072 181.841Z" fill="white"/>
<path d="M37.7038 160.382L37.6357 160.348C33.495 157.741 26.111 155.804 26.0371 155.804C25.949 155.779 25.8741 155.72 25.8285 155.641C25.7829 155.561 25.7701 155.467 25.7929 155.378C25.8035 155.334 25.8228 155.292 25.8499 155.255C25.8769 155.219 25.911 155.188 25.9502 155.164C25.9894 155.141 26.0329 155.126 26.078 155.12C26.1232 155.113 26.1692 155.116 26.2132 155.128C26.5199 155.208 33.7733 157.122 37.9992 159.78C38.0767 159.829 38.1315 159.907 38.1517 159.996C38.172 160.086 38.1559 160.18 38.1071 160.257C38.0637 160.32 38.0003 160.367 37.9272 160.39C37.854 160.412 37.7753 160.41 37.7038 160.382Z" fill="white"/>
<path d="M36.4258 157.219C36.3838 157.202 36.3456 157.177 36.3133 157.145C36.281 157.113 36.2555 157.075 36.238 157.034C36.2206 156.992 36.2116 156.947 36.2117 156.902C36.2117 156.856 36.2208 156.812 36.2384 156.77C37.2041 154.461 38.4889 152.298 40.0554 150.346C40.0843 150.311 40.1198 150.283 40.1598 150.262C40.1999 150.241 40.2436 150.229 40.2885 150.225C40.3334 150.221 40.3786 150.227 40.4214 150.241C40.4643 150.254 40.504 150.277 40.5382 150.306C40.6086 150.366 40.6523 150.452 40.6597 150.545C40.6672 150.637 40.6378 150.729 40.5779 150.8C39.0618 152.702 37.8155 154.805 36.8746 157.048C36.8362 157.129 36.7681 157.192 36.6845 157.224C36.6009 157.255 36.5082 157.254 36.4258 157.219Z" fill="white"/>
<path d="M44.6505 184.341C47.9334 185.361 51.4285 185.49 54.7779 184.715C60.5942 183.46 64.1499 178.03 64.1499 178.03C64.1499 178.03 57.8621 175.514 54.1929 175.27C54.1929 175.27 59.8729 174.298 65.2064 175.502C65.2064 175.502 68.5689 174.253 67.9328 168.567C67.9328 168.567 64.769 166.233 57.4759 167.147C57.4759 167.147 61.1281 164.54 67.5352 163.773C68.0407 163.773 67.3534 156.389 66.7457 153.078C66.1379 149.766 64.8485 148.937 62.2017 149.221C59.5548 149.505 51.9152 152.629 50.9269 154.521C49.9385 156.412 50.9269 161.263 50.9269 161.263C49.578 159.42 48.8302 157.207 48.7855 154.924C48.7855 154.924 45.8717 155.986 44.3153 157.366C43.1418 158.311 42.1898 159.501 41.5265 160.854C41.89 163.45 43.1112 167.414 44.8265 169.629C44.8265 169.629 40.9641 167.136 40.0837 162.541C40.0837 162.541 36.9938 166.488 37.0222 171.578C37.0677 177.388 39.6464 181.688 44.6505 184.341Z" fill="#BA68C8"/>
<path opacity="0.1" d="M44.6505 184.341C47.9334 185.361 51.4285 185.49 54.7779 184.715C60.5942 183.46 64.1499 178.03 64.1499 178.03C64.1499 178.03 57.8621 175.514 54.1929 175.27C54.1929 175.27 59.8729 174.298 65.2064 175.502C65.2064 175.502 68.5689 174.253 67.9328 168.567C67.9328 168.567 64.769 166.233 57.4759 167.147C57.4759 167.147 61.1281 164.54 67.5352 163.773C68.0407 163.773 67.3534 156.389 66.7457 153.078C66.1379 149.766 64.8485 148.937 62.2017 149.221C59.5548 149.505 51.9152 152.629 50.9269 154.521C49.9385 156.412 50.9269 161.263 50.9269 161.263C49.578 159.42 48.8302 157.207 48.7855 154.924C48.7855 154.924 45.8717 155.986 44.3153 157.366C43.1418 158.311 42.1898 159.501 41.5265 160.854C41.89 163.45 43.1112 167.414 44.8265 169.629C44.8265 169.629 40.9641 167.136 40.0837 162.541C40.0837 162.541 36.9938 166.488 37.0222 171.578C37.0677 177.388 39.6464 181.688 44.6505 184.341Z" fill="black"/>
<path d="M43.8837 183.824C43.9424 183.802 43.9936 183.763 44.0309 183.713C44.0682 183.662 44.0901 183.602 44.0938 183.54C44.9685 172.532 57.2885 155.327 62.7356 151.874C62.8098 151.826 62.8621 151.751 62.8812 151.665C62.9004 151.579 62.8848 151.488 62.8378 151.414C62.7911 151.34 62.717 151.288 62.6318 151.268C62.5466 151.249 62.4573 151.265 62.3834 151.311C56.8511 154.822 44.3267 172.327 43.4349 183.489C43.4311 183.532 43.4358 183.575 43.4488 183.617C43.4619 183.658 43.483 183.697 43.511 183.73C43.539 183.763 43.5732 183.791 43.6119 183.811C43.6505 183.831 43.6927 183.843 43.736 183.846C43.7864 183.853 43.8377 183.845 43.8837 183.824Z" fill="white"/>
<path d="M187.145 76.5171C187.145 65.6002 180.51 52.9167 172.32 48.191C168.565 46.0212 165.123 45.8678 162.51 47.4298L156.138 51.1957L158.978 57.2108C158.978 57.6595 158.938 58.1196 158.938 58.591C158.938 69.0706 165.055 81.1747 172.791 86.3038L175.603 92.2337L181.936 88.536C185.123 86.7638 187.145 82.5379 187.145 76.5171Z" fill="#BA68C8"/>
<path opacity="0.15" d="M187.145 76.5171C187.145 65.6002 180.51 52.9167 172.32 48.191C168.565 46.0212 165.123 45.8678 162.51 47.4298L156.138 51.1957L158.978 57.2108C158.978 57.6595 158.938 58.1196 158.938 58.591C158.938 69.0706 165.055 81.1747 172.791 86.3038L175.603 92.2337L181.936 88.536C185.123 86.7638 187.145 82.5379 187.145 76.5171Z" fill="black"/>
<path d="M174.819 92.6871C181.374 89.8978 182.691 78.2416 177.759 66.6521C172.828 55.0627 163.516 47.9288 156.961 50.7181C150.405 53.5074 149.089 65.1637 154.02 76.7531C158.952 88.3426 168.263 95.4765 174.819 92.6871Z" fill="#BA68C8"/>
<path d="M176.035 78.8402C176.035 81.8847 175.239 84.3498 173.899 85.9459C172.036 88.1782 169.145 88.7178 165.901 86.8377C162.658 84.9576 159.75 81.0498 157.904 76.6875C156.575 73.6671 155.852 70.4155 155.774 67.1167L176.035 78.8402Z" fill="#455A64"/>
<path d="M173.899 85.9459C172.036 88.1782 169.145 88.7178 165.901 86.8377C162.658 84.9576 159.75 81.0498 157.904 76.6875C159.983 75.188 162.817 75.171 165.924 76.9545C169.031 78.738 171.82 82.021 173.899 85.9459Z" fill="#F28F8F"/>
<path d="M175.313 74.1713C175.102 74.1659 174.9 74.083 174.745 73.9384L169.463 68.9343C169.343 68.8209 169.259 68.6754 169.219 68.5152C169.18 68.355 169.188 68.1869 169.242 68.031C169.296 67.8752 169.394 67.7382 169.524 67.6365C169.653 67.5348 169.81 67.4726 169.974 67.4575L174.047 67.094C174.273 67.0765 174.497 67.1481 174.671 67.2935C174.845 67.4389 174.955 67.6466 174.978 67.8722C174.988 67.9844 174.976 68.0976 174.942 68.2052C174.909 68.3128 174.854 68.4127 174.782 68.4992C174.71 68.5858 174.621 68.6572 174.521 68.7094C174.421 68.7617 174.312 68.7937 174.2 68.8037L172.024 68.9968L175.927 72.6888C176.051 72.8054 176.137 72.9563 176.175 73.1222C176.213 73.2882 176.201 73.4617 176.14 73.6207C176.079 73.7797 175.972 73.9169 175.833 74.015C175.694 74.113 175.529 74.1674 175.359 74.1713H175.313Z" fill="#455A64"/>
<path d="M161.942 64.4982H161.766L156.484 63.402C156.258 63.3553 156.06 63.2208 155.933 63.028C155.806 62.8351 155.761 62.5999 155.808 62.3739C155.855 62.148 155.989 61.9498 156.182 61.823C156.375 61.6963 156.61 61.6513 156.836 61.698L159.773 62.3114L157.2 59.1079C157.057 58.9302 156.991 58.7031 157.016 58.4768C157.041 58.2504 157.155 58.0433 157.333 57.9009C157.511 57.7586 157.738 57.6927 157.964 57.7177C158.191 57.7427 158.398 57.8566 158.54 58.0344L162.613 63.101C162.722 63.2389 162.787 63.4069 162.798 63.5825C162.809 63.7581 162.766 63.933 162.675 64.0836C162.599 64.2103 162.492 64.3151 162.364 64.3877C162.235 64.4604 162.09 64.4985 161.942 64.4982Z" fill="#455A64"/>
<path d="M154.877 78.1359C154.877 78.1359 153.86 82.0324 149.231 83.9693C149.078 84.03 148.947 84.1363 148.857 84.2738C148.766 84.4114 148.721 84.5734 148.726 84.7378C148.731 84.9023 148.786 85.0612 148.885 85.193C148.983 85.3248 149.12 85.4231 149.276 85.4745C151.149 86.0893 153.149 86.2105 155.082 85.8265C157.015 85.4424 158.817 84.566 160.312 83.282L154.877 78.1359Z" fill="#BA68C8"/>
<path d="M152.735 35.9278C152.735 29.8218 149.026 22.7332 144.448 20.0863C142.346 18.8765 140.421 18.7913 138.961 19.666L135.4 21.7676L136.996 25.1358C136.996 25.3858 136.996 25.6414 136.996 25.9026C136.996 31.7644 140.404 38.5293 144.743 41.4034L146.311 44.7148L149.85 42.6586C151.605 41.659 152.735 39.2961 152.735 35.9278Z" fill="#BA68C8"/>
<path opacity="0.15" d="M152.735 35.9278C152.735 29.8218 149.026 22.7332 144.448 20.0863C142.346 18.8765 140.421 18.7913 138.961 19.666L135.4 21.7676L136.996 25.1358C136.996 25.3858 136.996 25.6414 136.996 25.9026C136.996 31.7644 140.404 38.5293 144.743 41.4034L146.311 44.7148L149.85 42.6586C151.605 41.659 152.735 39.2961 152.735 35.9278Z" fill="black"/>
<path d="M145.848 44.9743C149.513 43.4144 150.25 36.8966 147.493 30.4164C144.735 23.9361 139.528 19.9473 135.862 21.5072C132.196 23.067 131.46 29.5848 134.217 36.0651C136.975 42.5454 142.182 46.5341 145.848 44.9743Z" fill="#BA68C8"/>
<path d="M146.544 37.2286C146.62 38.6522 146.198 40.0579 145.351 41.2046C144.312 42.4542 142.693 42.7552 140.881 41.7044C139.069 40.6536 137.439 38.4725 136.4 36.0244C135.647 34.338 135.234 32.5199 135.184 30.6738L146.544 37.2286Z" fill="#455A64"/>
<path d="M145.328 41.1989C144.289 42.4485 142.67 42.7495 140.858 41.6987C139.046 40.6479 137.416 38.4668 136.377 36.0187C137.513 35.1781 139.12 35.1724 140.858 36.1664C142.778 37.4068 144.323 39.1465 145.328 41.1989Z" fill="#F28F8F"/>
<path d="M143.511 31.3214C143.505 31.6602 143.577 31.9958 143.722 32.3022C143.867 32.6086 144.08 32.8774 144.346 33.0878C144.806 33.3548 145.181 32.997 145.181 32.287C145.187 31.9481 145.115 31.6125 144.97 31.3061C144.825 30.9998 144.611 30.7309 144.346 30.5205C143.886 30.2535 143.511 30.6 143.511 31.3214Z" fill="#455A64"/>
<path d="M136.559 27.4476C136.553 27.7864 136.625 28.1221 136.77 28.4284C136.914 28.7348 137.128 29.0036 137.394 29.2141C137.854 29.481 138.228 29.1175 138.228 28.4132C138.238 28.0706 138.168 27.7305 138.023 27.4199C137.878 27.1093 137.662 26.8368 137.394 26.624C136.933 26.3798 136.559 26.7376 136.559 27.4476Z" fill="#455A64"/>
<path d="M134.696 36.848C134.438 37.5886 134.022 38.264 133.477 38.8272C132.931 39.3903 132.269 39.8276 131.537 40.1083C131.452 40.1416 131.379 40.1998 131.328 40.2753C131.276 40.3508 131.249 40.4401 131.249 40.5315C131.249 40.6229 131.276 40.7122 131.328 40.7876C131.379 40.8631 131.452 40.9213 131.537 40.9546C132.592 41.2971 133.717 41.3605 134.803 41.1385C135.889 40.9165 136.899 40.4167 137.734 39.688L134.696 36.848Z" fill="#BA68C8"/>
<path opacity="0.15" d="M160.363 135.407C150.707 130.068 148.839 124.229 140.483 102.463C132.128 80.6976 116.508 87.5818 116.508 87.5818C116.508 87.5818 87.2448 96.1756 82.7406 109.796C79.0826 120.844 83.7573 134.998 87.4379 143.456C89.0358 147.271 91.2038 150.822 93.8677 153.987C82.8371 151.817 74.0558 159.258 74.0558 159.258C74.0558 159.258 83.3597 154.844 98.6332 160.962C107.676 164.591 114.725 171.754 124.33 174.594C131.787 176.78 139.347 178.99 145.493 183.966C151.109 188.482 154.794 194.966 155.802 202.102C155.875 203.332 156.153 204.542 156.626 205.68C166.344 200.665 174.137 195.53 180.084 188.828C180.272 186.658 180.136 184.431 180.192 182.256C180.408 174.253 180.51 166.227 180.084 158.224C179.085 139.843 170.008 140.747 160.363 135.407Z" fill="#BA68C8"/>
<path opacity="0.05" d="M160.363 135.407C150.707 130.068 148.839 124.229 140.483 102.463C132.128 80.6976 116.508 87.5818 116.508 87.5818C116.508 87.5818 87.2448 96.1756 82.7406 109.796C79.0826 120.844 83.7573 134.998 87.4379 143.456C89.0358 147.271 91.2038 150.822 93.8677 153.987C82.8371 151.817 74.0558 159.258 74.0558 159.258C74.0558 159.258 83.3597 154.844 98.6332 160.962C107.676 164.591 114.725 171.754 124.33 174.594C131.787 176.78 139.347 178.99 145.493 183.966C151.109 188.482 154.794 194.966 155.802 202.102C155.875 203.332 156.153 204.542 156.626 205.68C166.344 200.665 174.137 195.53 180.084 188.828C180.272 186.658 180.136 184.431 180.192 182.256C180.408 174.253 180.51 166.227 180.084 158.224C179.085 139.843 170.008 140.747 160.363 135.407Z" fill="black"/>
<path d="M88.6762 50.7356C87.6475 49.8438 86.3833 49.2679 85.0353 49.077C82.8599 48.7853 80.6465 49.1274 78.6607 50.0623C76.6749 50.9973 75.001 52.4854 73.84 54.3481C71.8122 57.7561 71.7214 61.9479 72.3859 65.833C73.0505 69.7182 74.3966 73.4613 75.0612 77.3464C75.6292 80.7998 72.2212 83.9636 69.989 86.122C69.5743 86.5139 69.1256 87.0819 69.3869 87.5931C69.495 87.7443 69.635 87.8699 69.7969 87.9612C69.9588 88.0524 70.1388 88.1071 70.3241 88.1214C72.4052 88.5108 74.5541 88.2986 76.519 87.5099C78.4838 86.7212 80.1829 85.3885 81.4171 83.6682L81.7466 86.5821C82.5257 86.377 83.2485 85.9987 83.8612 85.4756C84.4738 84.9524 84.9606 84.2977 85.2852 83.5603C85.9123 82.0818 86.2126 80.4853 86.1656 78.88C86.2224 73.5181 84.1719 68.6049 83.5812 63.3736C82.9223 57.4891 84.5525 52.9054 88.3467 53.2518C89.8917 53.3938 90.5846 52.8088 89.4827 51.5478C89.233 51.2587 88.9635 50.9873 88.6762 50.7356Z" fill="#263238"/>
<path d="M87.6992 51.7296C87.4436 51.5194 84.8592 45.777 86.7961 41.8805C88.733 37.984 90.6528 40.1765 91.0674 43.113C91.2551 44.7153 91.046 46.3392 90.4587 47.8417C89.8714 49.3442 88.9237 50.6793 87.6992 51.7296Z" fill="#BA68C8"/>
<path d="M88.733 52.1272C88.4603 52.309 82.2294 53.1837 79.0259 50.2414C75.8223 47.2992 78.4579 46.061 81.4001 46.487C82.991 46.7543 84.4917 47.4084 85.7704 48.392C87.0491 49.3755 88.0664 50.6582 88.733 52.1272Z" fill="#BA68C8"/>
<path d="M161.829 194.025C161.164 194.792 160.398 195.684 160.534 196.598C160.881 198.55 161.842 200.341 163.277 201.71C165.311 203.721 166.765 207.657 167.253 210.355C167.742 213.053 168.304 219.96 171.871 222.522C175.438 225.083 183.845 226.066 183.617 221.016C183.39 215.967 172.519 197.024 172.519 197.024L161.829 194.025Z" fill="#263238"/>
<path d="M166.606 197.058C168.163 200.516 169.456 204.088 170.474 207.742C171.513 211.752 172.842 214.558 174.961 215.541C177.08 216.523 180.153 216.194 178.863 213.496C177.574 210.798 172.519 197.024 172.519 197.024L166.606 197.058Z" fill="#F28F8F"/>
<path d="M136.723 129.352C136.723 129.352 153.485 136.1 161.658 140.014C169.832 143.927 177.619 147.767 179.363 151.147C181.209 154.719 181.186 163.432 180.698 171.833C180.209 180.234 179.085 195.348 179.085 195.348L154.093 161.41L129.896 146.989L136.723 129.352Z" fill="#FFA8A7"/>
<path d="M136.723 129.352C136.723 129.352 154.973 136.112 163.681 140.985C160.587 143.045 157.866 145.615 155.632 148.585C153.418 151.736 151.872 155.306 151.088 159.076L129.896 149.017L136.723 129.352Z" fill="#BA68C8"/>
<path opacity="0.3" d="M136.723 129.352C136.723 129.352 154.973 136.112 163.681 140.985C160.587 143.045 157.866 145.615 155.632 148.585C153.418 151.736 151.872 155.306 151.088 159.076L129.896 149.017L136.723 129.352Z" fill="black"/>
<path opacity="0.15" d="M168.753 164.779C166.197 159.519 161 156.19 156.155 153.492C152.298 151.345 143.091 146.603 139.33 144.649C139.807 142.85 139.719 140.949 139.08 139.202C138.013 144.217 136.956 145.518 136.956 145.518L161.607 162.194L179.454 190.935C179.454 190.935 171.309 170.033 168.753 164.779Z" fill="black"/>
<path d="M182.294 221.448C181.641 221.925 181.811 223.595 181.936 224.816C182.061 226.037 181.249 227.656 183.112 229.491C184.975 231.326 187.985 231.326 190.53 233.791C193.075 236.256 197.022 240.845 203.708 240.879C210.393 240.913 214.84 237.784 215.636 235.631C216.431 233.478 214.994 231.888 210.41 230.4C205.542 228.809 204.162 228.338 204.162 228.338L182.294 221.448Z" fill="#263238"/>
<path d="M186.463 206.873C186.463 206.873 191.331 214.825 194.029 218.335C196.727 221.846 200.464 224.987 204.48 227.776C205.355 228.383 207.263 229.44 207.973 229.928C208.136 230.018 208.277 230.143 208.386 230.294C208.495 230.445 208.57 230.618 208.604 230.801C208.638 230.984 208.631 231.172 208.584 231.352C208.537 231.532 208.451 231.7 208.331 231.842C207.286 233.512 201.515 235.324 197.619 233.705C193.722 232.087 189.309 228.241 186.827 226.764C185.594 226.026 184.435 225.316 183.583 224.788C183.182 224.541 182.851 224.195 182.622 223.783C182.393 223.371 182.274 222.907 182.277 222.436C182.277 222.164 182.277 221.868 182.277 221.471C182.248 219.471 177.773 212.383 177.773 212.383L186.463 206.873Z" fill="#FFA8A7"/>
<path d="M99.2807 140.042C99.9282 146.813 100.309 150.528 104.467 156.48C108.494 162.245 118.002 165.983 128.237 168.897C136.701 171.311 149.151 174.741 151.605 175.145C154.059 175.548 154.627 176.849 155.388 181.12C156.149 185.391 159.364 191.912 166.231 199.324C171.223 204.838 175.916 210.615 180.289 216.631C180.289 216.631 187.105 216.319 189.485 211.661C189.485 211.661 168.469 167.869 165.197 162.853C161.925 157.838 136.729 145.359 136.729 145.359C138.169 140.119 138.169 134.587 136.729 129.347L99.2807 140.042Z" fill="#FFA8A7"/>
<path d="M97.6562 140.712C99.2807 147.716 99.1387 158.184 114.73 164.773C126.09 169.573 141.154 172.793 141.154 172.793C141.154 172.793 138.882 169.385 141.409 163.353C143.784 157.77 148.793 153.833 151.9 153.282L137.132 145.387C137.132 145.387 140.449 138.912 136.712 129.352L97.6562 140.712Z" fill="#BA68C8"/>
<path opacity="0.3" d="M97.6562 140.712C99.2807 147.716 99.1387 158.184 114.73 164.773C126.09 169.573 141.154 172.793 141.154 172.793C141.154 172.793 138.882 169.385 141.409 163.353C143.784 157.77 148.793 153.833 151.9 153.282L137.132 145.387C137.132 145.387 140.449 138.912 136.712 129.352L97.6562 140.712Z" fill="black"/>
<path d="M116.099 83.5149C120.365 83.1684 126.477 83.691 129.016 86.9229C132.378 91.2283 139.24 108.728 141.466 117.453C142.068 119.838 136.655 129.262 132.264 123.655C124.318 113.528 116.099 83.5149 116.099 83.5149Z" fill="#F28F8F"/>
<path d="M138.393 129.568L133.429 124.519L130.64 119.725L129.209 112.682C133.826 108.535 134.724 101.969 131.924 97.4252C130.012 94.3359 127.599 91.587 124.784 89.2914C120.018 85.2643 117.758 84.0261 116.105 83.5149C113.964 83.6796 112.39 83.9522 112.39 83.9522L100.144 87.1274L94.7992 89.4902C98.1731 92.938 99.8544 99.5438 98.8036 105.798C97.7528 112.051 94.6686 113.182 94.6686 113.182L94.3959 116.618C94.3959 116.618 93.9529 122.548 94.9639 127.194C96.56 134.152 96.56 139.196 98.832 146.989C107.562 148.727 122.239 146.909 130.759 140.542C139.12 134.288 138.393 129.568 138.393 129.568Z" fill="#455A64"/>
<path d="M156.319 107.848L155.348 107.11C155.204 107.026 155.042 106.979 154.876 106.971C154.71 106.963 154.545 106.995 154.394 107.064L144.55 110.393C144.056 110.589 143.61 110.891 143.244 111.276C142.877 111.661 142.598 112.122 142.426 112.625L136.485 133.845C136.409 134.02 136.388 134.214 136.423 134.401C136.458 134.589 136.549 134.761 136.684 134.896L137.689 135.657C137.834 135.743 137.997 135.793 138.165 135.802C138.334 135.811 138.501 135.779 138.654 135.708L148.498 132.386C148.991 132.187 149.435 131.884 149.801 131.497C150.167 131.111 150.445 130.651 150.617 130.148C151.787 125.973 155.393 113.108 156.558 108.927C156.711 108.416 156.603 108.052 156.319 107.848Z" fill="#455A64"/>
<path d="M144.488 111.824C143.993 112.251 143.624 112.805 143.42 113.426L137.456 134.618C137.385 134.789 137.363 134.976 137.392 135.158C137.421 135.34 137.5 135.511 137.621 135.652L136.678 134.936C136.542 134.8 136.451 134.627 136.416 134.438C136.38 134.25 136.402 134.055 136.479 133.879L142.426 112.665C142.618 112.085 142.956 111.564 143.409 111.154L144.488 111.824Z" fill="#263238"/>
<path d="M137.456 134.618L143.397 113.403C143.569 112.899 143.848 112.438 144.215 112.052C144.581 111.666 145.027 111.363 145.522 111.165L155.382 107.848C156.297 107.541 156.825 108.041 156.564 108.984C155.399 113.153 151.792 126.024 150.622 130.204C150.45 130.707 150.171 131.167 149.806 131.554C149.44 131.94 148.996 132.243 148.504 132.442L138.66 135.765C137.746 136.049 137.217 135.544 137.456 134.618Z" fill="#37474F"/>
<path d="M154.644 115.8C156.348 115.277 157.455 117.129 157.353 120.384C157.251 123.638 155.399 129.682 150.367 128.222C148.407 127.654 146.959 124.417 149.003 122.951C152.536 120.395 153.724 119.077 153.724 119.077L154.644 115.8Z" fill="#F28F8F"/>
<path d="M93.0838 136.248C91.005 132.09 87.3527 121.94 86.0179 111.824C84.2117 98.1409 85.0466 92.6597 94.7935 89.4618C102.03 95.7098 100.048 111.12 100.048 111.12C101.354 116.839 103.535 126.581 104.989 130.193C114.208 130.097 131.038 124.661 132.906 123.633C133.866 123.104 134.923 121.548 135.536 120.725C136.173 119.76 137.029 118.96 138.035 118.39C139.313 117.691 140.376 117.254 141.29 116.766L140.052 121.196C140.16 121.452 140.739 121.503 141.012 121.588C142.98 122.205 145.05 122.437 147.106 122.27C151.4 121.906 155.382 118.737 154.593 122.559C154.28 124.076 153.689 126.933 151.434 128.887C149.18 130.841 140.836 131.784 138.495 132.902C138.495 132.902 117.099 142.252 108.301 143.422C98.8774 144.7 97.128 144.387 93.0838 136.248Z" fill="#FFA8A7"/>
<path d="M112.311 41.9089C111.804 41.9788 111.29 41.9635 110.788 41.8634C108.808 41.4353 106.788 41.2238 104.762 41.233C101.339 41.2217 97.9619 42.0278 94.9128 43.5845C92.3502 44.9342 90.1344 46.8583 88.4386 49.2064C86.7428 51.5545 85.613 54.2629 85.1375 57.1199C84.0867 63.703 87.1994 70.4963 91.3855 74.8529C93.578 77.1249 94.4357 78.1359 96.0942 79.3969C97.7528 80.6578 99.3432 81.6689 100.383 81.703L99.7578 77.3918C102.132 78.2926 104.697 78.5721 107.21 78.2041C109.641 77.8803 112.106 77.9428 114.293 76.7046C115.537 76.0087 116.615 75.0503 117.452 73.8958C118.289 72.7413 118.864 71.4184 119.138 70.0192C119.214 69.0812 119.405 68.156 119.706 67.2644C120.21 66.3507 120.861 65.5257 121.632 64.822C124.266 61.9621 125.795 58.2565 125.943 54.3708C126.047 53.2095 125.823 52.0423 125.295 51.0026C125.018 50.4926 124.591 50.0799 124.072 49.8199C123.553 49.5599 122.967 49.4652 122.393 49.5485C122.991 48.243 123.36 46.8442 123.483 45.4134C123.517 43.9821 122.961 42.4485 121.745 41.6987C120.694 41.0512 119.371 41.091 118.144 41.1875H117.843C116.601 41.2898 115.361 41.4318 114.123 41.6135C113.498 41.7044 112.901 41.8407 112.311 41.9089Z" fill="#263238"/>
<path d="M115.474 48.776C117.877 49.7586 121.575 53.32 122.665 65.0492C123.568 74.779 120.797 78.2041 119.257 79.1413C117.718 80.0785 115.321 80.2091 112.231 80.141L112.458 84.3214C120.439 88.9279 122.978 95.2668 116.065 95.3406C107.29 95.4315 99.7181 88.553 99.6272 87.7806L98.0425 74.7734C98.0425 74.7734 95.3558 76.4774 93.0384 74.2792C90.5562 71.9504 89.46 68.23 91.1072 65.9807C92.7544 63.7314 95.9863 64.1347 97.7301 66.0546C97.7301 66.0546 101.746 65.5434 107.642 61.0959C113.538 56.6485 114.645 53.5131 115.474 48.776Z" fill="#FFA8A7"/>
<path d="M97.7585 66.0375L98.1845 70.7349C98.6232 70.6956 99.0498 70.5703 99.4401 70.366C99.8303 70.1617 100.176 69.8825 100.459 69.5444C100.741 69.2062 100.954 68.8158 101.085 68.3953C101.216 67.9748 101.263 67.5326 101.223 67.094L100.712 61.4822L97.7585 66.0375Z" fill="#263238"/>
<path d="M120.745 58.6592L117.758 57.864C117.799 57.6651 117.88 57.4768 117.997 57.3105C118.113 57.1442 118.262 57.0036 118.435 56.8971C118.608 56.7907 118.801 56.7208 119.002 56.6917C119.203 56.6627 119.408 56.675 119.604 56.728C120.007 56.8401 120.351 57.1038 120.563 57.4638C120.776 57.8238 120.841 58.2522 120.745 58.6592Z" fill="#263238"/>
<path d="M109.948 72.1038L116.094 72.6718C116.079 73.0753 115.982 73.4717 115.809 73.8365C115.636 74.2012 115.389 74.5266 115.086 74.7927C114.782 75.0587 114.427 75.2598 114.042 75.3834C113.658 75.5071 113.252 75.5508 112.85 75.5118C112.021 75.4268 111.256 75.0251 110.715 74.3902C110.174 73.7553 109.9 72.9363 109.948 72.1038Z" fill="#B16668"/>
<path d="M114.23 61.999L115.014 70.1498L118.843 68.5026L114.23 61.999Z" fill="#F28F8F"/>
<path d="M112.26 80.1239C109.022 80.1694 102.212 79.2378 100.814 76.8011C100.814 76.8011 101.382 78.3802 103.586 79.7718C105.79 81.1634 112.384 82.43 112.384 82.43L112.26 80.1239Z" fill="#F28F8F"/>
<path d="M110.516 74.0861C110.812 73.7454 111.192 73.4881 111.618 73.3395C112.044 73.1908 112.501 73.1561 112.945 73.2388C113.389 73.3214 113.803 73.5186 114.147 73.8106C114.491 74.1027 114.753 74.4796 114.906 74.904C114.317 75.3464 113.583 75.5494 112.85 75.472C112.383 75.4272 111.932 75.2797 111.528 75.0401C111.124 74.8005 110.779 74.4748 110.516 74.0861Z" fill="#F28F8F"/>
<path d="M108.073 65.816C108.058 65.3682 108.193 64.9283 108.458 64.567C108.724 64.2058 109.103 63.9444 109.534 63.825C109.966 63.7056 110.426 63.735 110.839 63.9087C111.252 64.0824 111.594 64.3901 111.811 64.7822C111.17 64.4681 110.437 64.3994 109.749 64.5891C109.061 64.7822 108.465 65.218 108.073 65.816Z" fill="#263238"/>
<path d="M117.406 63.9075C117.46 63.462 117.664 63.0479 117.983 62.7325C118.303 62.417 118.719 62.2186 119.165 62.1693C119.612 62.12 120.061 62.2227 120.442 62.4609C120.823 62.699 121.112 63.0587 121.262 63.4815C120.684 63.0804 119.98 62.9009 119.28 62.976C118.563 63.0478 117.896 63.379 117.406 63.9075Z" fill="#263238"/>
<path d="M122.16 113.074C118.996 115.749 113.475 118.214 106.824 114.931C106.824 114.931 109.811 119.072 115.043 118.441C121.552 117.663 122.16 113.074 122.16 113.074Z" fill="#37474F"/>
<path d="M84.9671 34.3147L81.7522 32.4574C81.6865 32.4317 81.6321 32.3833 81.5989 32.321L81.0309 31.2873L82.928 30.1854L82.8712 30.3558L84.9671 34.3147Z" fill="#263238"/>
<path d="M82.627 30.3444L84.8535 34.2011C84.886 34.2554 84.9332 34.2993 84.9897 34.3279C85.0461 34.3565 85.1095 34.3685 85.1725 34.3625C85.2354 34.3566 85.2954 34.3329 85.3455 34.2943C85.3956 34.2557 85.4338 34.2037 85.4556 34.1443L87.8071 27.3283L82.627 30.3444Z" fill="#37474F"/>
<path d="M93.152 9.77144C93.1234 9.23094 92.9675 8.70483 92.6971 8.23599C92.4266 7.76714 92.0492 7.36881 91.5957 7.07344L90.312 6.34072C89.8294 6.09708 89.2963 5.97015 88.7557 5.97015C88.2151 5.97015 87.682 6.09708 87.1994 6.34072L62.0029 20.8758C61.5477 21.1695 61.1691 21.5674 60.8985 22.0366C60.6278 22.5058 60.4729 23.0328 60.4466 23.5738V36.3311C60.4738 36.8712 60.6291 37.397 60.8997 37.8651C61.1704 38.3333 61.5485 38.7303 62.0029 39.0234L63.2695 39.7562C63.7511 40.0033 64.2846 40.1323 64.8258 40.1323C65.3671 40.1323 65.9006 40.0033 66.3822 39.7562L91.7206 25.1188C93.1179 24.3236 93.1293 23.5227 93.1293 22.5287L93.152 9.77144Z" fill="#37474F"/>
<path d="M60.4466 36.3311C60.4738 36.8712 60.6291 37.397 60.8997 37.8651C61.1704 38.3333 61.5485 38.7303 62.0029 39.0234L63.2695 39.7562C63.7069 39.9772 64.186 40.1031 64.6755 40.1256C65.165 40.1481 65.6537 40.0668 66.1095 39.8868C65.3768 40.1651 64.8202 39.7448 64.8202 38.8587V26.1014C64.836 25.5595 64.9926 25.0309 65.2746 24.5678L60.8953 22.0402C60.6133 22.5033 60.4567 23.0319 60.4409 23.5738L60.4466 36.3311Z" fill="#263238"/>
<path d="M93.0782 9.32839C92.8964 8.66951 92.2943 8.45368 91.5786 8.86832L66.3765 23.4034C65.9205 23.6828 65.5432 24.0738 65.2802 24.5394L60.9066 22.0118C61.1675 21.5446 61.5453 21.1532 62.0029 20.8758L87.1937 6.34639C87.6763 6.10276 88.2094 5.97583 88.75 5.97583C89.2906 5.97583 89.8237 6.10276 90.3063 6.34639L91.5786 7.07912C91.9688 7.33193 92.3031 7.6619 92.561 8.04872C92.8188 8.43553 92.9949 8.87102 93.0782 9.32839Z" fill="#455A64"/>
<path d="M69.0063 27.0216L87.0006 16.5818C87.5231 16.2807 87.9434 16.417 87.9434 16.8885C87.9054 17.1786 87.8005 17.4558 87.6368 17.6983C87.4732 17.9409 87.2553 18.142 87.0006 18.2858L69.0063 28.7256C68.4838 29.0266 68.0634 28.8903 68.0634 28.4189C68.1014 28.1288 68.2064 27.8515 68.3701 27.609C68.5337 27.3665 68.7515 27.1654 69.0063 27.0216Z" fill="#BA68C8"/>
<path d="M69.0063 31.2986L87.0006 20.8588C87.5231 20.5578 87.9434 20.6941 87.9434 21.1655C87.9054 21.4556 87.8005 21.7329 87.6368 21.9754C87.4732 22.2179 87.2553 22.419 87.0006 22.5628L69.0063 32.997C68.4838 33.298 68.0634 33.1617 68.0634 32.6902C68.1023 32.4012 68.2076 32.125 68.3713 31.8836C68.5349 31.6421 68.7522 31.4419 69.0063 31.2986Z" fill="#BA68C8"/>
<path d="M43.7815 39.0234L40.5666 37.1661C40.5 37.1418 40.4451 37.0931 40.4132 37.0298L39.8452 36.0017L41.7537 34.8657L41.6969 35.0361L43.7815 39.0234Z" fill="#BA68C8"/>
<path opacity="0.2" d="M43.7815 39.0234L40.5666 37.1661C40.5 37.1418 40.4451 37.0931 40.4132 37.0298L39.8452 36.0017L41.7537 34.8657L41.6969 35.0361L43.7815 39.0234Z" fill="black"/>
<path d="M41.464 35.0531L43.6905 38.9098C43.7231 38.9641 43.7703 39.0081 43.8267 39.0366C43.8831 39.0652 43.9465 39.0772 44.0095 39.0712C44.0725 39.0653 44.1325 39.0417 44.1826 39.003C44.2327 38.9644 44.2708 38.9124 44.2926 38.853L46.6442 32.037L41.464 35.0531Z" fill="#BA68C8"/>
<path d="M67.8534 3.336C67.8234 2.79581 67.667 2.27022 67.3967 1.80158C67.1263 1.33294 66.7497 0.934374 66.2971 0.638L65.0304 -0.072C64.5471 -0.316568 64.013 -0.444 63.4713 -0.444C62.9296 -0.444 62.3955 -0.316568 61.9121 -0.072L32.0012 17.1782C31.548 17.4739 31.1709 17.8723 30.9004 18.3411C30.63 18.8098 30.474 19.3358 30.4449 19.8762V34.576C30.474 35.1164 30.63 35.6423 30.9004 36.1111C31.1709 36.5799 31.548 36.9783 32.0012 37.274L33.2679 37.984C33.7505 38.2276 34.2836 38.3546 34.8242 38.3546C35.3648 38.3546 35.8979 38.2276 36.3805 37.984L66.4561 20.5975C67.8534 19.8023 67.8704 19.0014 67.8704 18.0074L67.8534 3.336Z" fill="#BA68C8"/>
<path opacity="0.2" d="M30.4448 34.576C30.4739 35.1164 30.6299 35.6423 30.9003 36.1111C31.1707 36.5799 31.5479 36.9783 32.0011 37.274L33.2678 37.984C33.7057 38.203 34.1848 38.3277 34.6739 38.3502C35.1631 38.3727 35.6515 38.2925 36.1078 38.1146C35.375 38.3873 34.8127 37.9726 34.8127 37.0866V22.4038C34.8315 21.8615 34.99 21.3332 35.2728 20.8702L30.8935 18.3426C30.61 18.8053 30.4515 19.3338 30.4334 19.8762L30.4448 34.576Z" fill="black"/>
<path opacity="0.4" d="M67.8022 2.88728C67.6204 2.2284 67.0183 2.01256 66.297 2.4272L36.3804 19.7058C35.9244 19.9851 35.5471 20.3761 35.2842 20.8418L30.9106 18.3142C31.1697 17.8457 31.5479 17.4539 32.0068 17.1782L61.912 -0.072C62.3946 -0.315638 62.9277 -0.442566 63.4683 -0.442566C64.0089 -0.442566 64.542 -0.315638 65.0246 -0.072L66.297 0.660721C66.6857 0.910442 67.0196 1.23659 67.2783 1.61936C67.5371 2.00212 67.7153 2.4335 67.8022 2.88728Z" fill="white"/>
<path d="M39.0102 26.5218L55.1812 17.1554C55.7038 16.8544 56.1241 16.9907 56.1241 17.4622C56.0861 17.7522 55.9811 18.0295 55.8174 18.272C55.6538 18.5145 55.436 18.7156 55.1812 18.8594L39.0102 28.2258C38.4877 28.5268 38.0674 28.3905 38.0674 27.919C38.1054 27.629 38.2103 27.3517 38.374 27.1092C38.5376 26.8667 38.7555 26.6656 39.0102 26.5218Z" fill="white"/>
<path d="M39.0102 30.7988L61.7302 17.6155C62.2471 17.3145 62.6731 17.4508 62.6731 17.9222C62.6343 18.2121 62.5289 18.489 62.3654 18.7314C62.2018 18.9737 61.9845 19.175 61.7302 19.3195L39.0102 32.5028C38.4877 32.7982 38.0674 32.6618 38.0674 32.1961C38.1054 31.906 38.2103 31.6287 38.374 31.3862C38.5376 31.1437 38.7555 30.9426 39.0102 30.7988Z" fill="white"/>
<path d="M39.0102 22.0402L61.7302 8.85696C62.2471 8.55592 62.6731 8.69224 62.6731 9.16368C62.6343 9.4535 62.5289 9.73041 62.3654 9.97279C62.2018 10.2152 61.9845 10.4165 61.7302 10.561L39.0102 23.7386C38.4877 24.0396 38.0674 23.9033 38.0674 23.4318C38.1062 23.1428 38.2116 22.8666 38.3752 22.6252C38.5388 22.3837 38.7562 22.1835 39.0102 22.0402Z" fill="white"/>
</g>
<defs>
<clipPath id="clip0_9_2">
<rect width="284" height="250" fill="white"/>
</clipPath>
</defs>
</svg>
