<svg width="130" height="44" viewBox="0 0 130 44" fill="none" xmlns="http://www.w3.org/2000/svg">
<g clip-path="url(#clip0_9_172)">
<path d="M14.0469 8.28125C10.4231 8.28848 6.94979 9.73122 4.38738 12.2936C1.82497 14.856 0.382226 18.3293 0.375 21.9531V33.4785C0.375 34.0478 0.601147 34.5938 1.00369 34.9963C1.40623 35.3989 1.9522 35.625 2.52148 35.625H14.0469C17.6729 35.625 21.1504 34.1846 23.7143 31.6206C26.2783 29.0566 27.7188 25.5791 27.7188 21.9531C27.7188 18.3271 26.2783 14.8496 23.7143 12.2856C21.1504 9.72168 17.6729 8.28125 14.0469 8.28125ZM7.48438 24.1406C7.15989 24.1406 6.84269 24.0444 6.57289 23.8641C6.30309 23.6839 6.09281 23.4276 5.96864 23.1278C5.84446 22.8281 5.81197 22.4982 5.87527 22.1799C5.93858 21.8617 6.09483 21.5693 6.32428 21.3399C6.55372 21.1105 6.84605 20.9542 7.1643 20.8909C7.48255 20.8276 7.81243 20.8601 8.11222 20.9843C8.412 21.1084 8.66823 21.3187 8.84851 21.5885C9.02878 21.8583 9.125 22.1755 9.125 22.5C9.125 22.9351 8.95215 23.3524 8.64447 23.6601C8.3368 23.9678 7.9195 24.1406 7.48438 24.1406ZM14.0469 24.1406C13.7224 24.1406 13.4052 24.0444 13.1354 23.8641C12.8656 23.6839 12.6553 23.4276 12.5311 23.1278C12.407 22.8281 12.3745 22.4982 12.4378 22.1799C12.5011 21.8617 12.6573 21.5693 12.8868 21.3399C13.1162 21.1105 13.4086 20.9542 13.7268 20.8909C14.0451 20.8276 14.3749 20.8601 14.6747 20.9843C14.9745 21.1084 15.2307 21.3187 15.411 21.5885C15.5913 21.8583 15.6875 22.1755 15.6875 22.5C15.6875 22.9351 15.5146 23.3524 15.207 23.6601C14.8993 23.9678 14.482 24.1406 14.0469 24.1406ZM20.6094 24.1406C20.2849 24.1406 19.9677 24.0444 19.6979 23.8641C19.4281 23.6839 19.2178 23.4276 19.0936 23.1278C18.9695 22.8281 18.937 22.4982 19.0003 22.1799C19.0636 21.8617 19.2198 21.5693 19.4493 21.3399C19.6787 21.1105 19.9711 20.9542 20.2893 20.8909C20.6076 20.8276 20.9374 20.8601 21.2372 20.9843C21.537 21.1084 21.7932 21.3187 21.9735 21.5885C22.1538 21.8583 22.25 22.1755 22.25 22.5C22.25 22.9351 22.0771 23.3524 21.7695 23.6601C21.4618 23.9678 21.0445 24.1406 20.6094 24.1406Z" fill="#9E59AA"/>
</g>
<path d="M33.736 38.984C33.0747 39.0053 32.552 38.888 32.168 38.632C31.7627 38.376 31.4853 38.056 31.336 37.672C31.1867 37.288 31.1547 36.8933 31.24 36.488C31.304 36.104 31.4747 35.7627 31.752 35.464C32.0293 35.1867 32.3813 35.0267 32.808 34.984C33.512 34.9413 34.024 34.7493 34.344 34.408C34.664 34.088 34.824 33.5867 34.824 32.904V19.816C34.824 18.8987 35.0693 18.1947 35.56 17.704C36.0507 17.2133 36.7547 16.968 37.672 16.968C38.5893 16.968 39.2933 17.2133 39.784 17.704C40.2747 18.1947 40.52 18.8987 40.52 19.816V32.36C40.52 33.7893 40.2747 34.984 39.784 35.944C39.2933 36.9253 38.5467 37.6613 37.544 38.152C36.5627 38.664 35.2933 38.9413 33.736 38.984ZM37.64 14.696C36.616 14.696 35.8267 14.4613 35.272 13.992C34.7387 13.5227 34.472 12.84 34.472 11.944C34.472 11.0693 34.7387 10.3973 35.272 9.928C35.8267 9.45867 36.616 9.224 37.64 9.224C38.664 9.224 39.4427 9.45867 39.976 9.928C40.5307 10.3973 40.808 11.0693 40.808 11.944C40.808 12.84 40.5307 13.5227 39.976 13.992C39.4427 14.4613 38.664 14.696 37.64 14.696ZM51.6595 39.112C50.4862 39.112 49.3875 39.0267 48.3635 38.856C47.3395 38.7067 46.4542 38.4827 45.7075 38.184C45.0888 37.9707 44.6515 37.6613 44.3955 37.256C44.1395 36.8507 44.0222 36.424 44.0435 35.976C44.0648 35.528 44.1822 35.1227 44.3955 34.76C44.6302 34.3973 44.9395 34.1307 45.3235 33.96C45.7075 33.8107 46.1342 33.8213 46.6035 33.992C47.5422 34.376 48.3955 34.6213 49.1635 34.728C49.9315 34.856 50.5822 34.92 51.1155 34.92C52.4168 34.92 53.3875 34.6427 54.0275 34.088C54.6888 33.5547 55.0195 32.712 55.0195 31.56V29.544H55.2755C54.9555 30.44 54.3048 31.176 53.3235 31.752C52.3422 32.3067 51.2755 32.584 50.1235 32.584C48.7155 32.584 47.4888 32.264 46.4435 31.624C45.3982 30.9627 44.5768 30.0453 43.9795 28.872C43.4035 27.6987 43.1155 26.3227 43.1155 24.744C43.1155 23.5493 43.2862 22.472 43.6275 21.512C43.9688 20.552 44.4382 19.7307 45.0355 19.048C45.6542 18.3653 46.3902 17.8427 47.2435 17.48C48.1182 17.096 49.0782 16.904 50.1235 16.904C51.3182 16.904 52.3848 17.1813 53.3235 17.736C54.2835 18.2907 54.9235 19.016 55.2435 19.912L54.9235 21.224V19.816C54.9235 18.8987 55.1688 18.1947 55.6595 17.704C56.1715 17.2133 56.8755 16.968 57.7715 16.968C58.6675 16.968 59.3502 17.2133 59.8195 17.704C60.3102 18.1947 60.5555 18.8987 60.5555 19.816V30.888C60.5555 33.6187 59.7875 35.6667 58.2515 37.032C56.7155 38.4187 54.5182 39.112 51.6595 39.112ZM51.8835 28.392C52.5235 28.392 53.0675 28.2533 53.5155 27.976C53.9635 27.6773 54.3155 27.2613 54.5715 26.728C54.8275 26.1733 54.9555 25.512 54.9555 24.744C54.9555 23.592 54.6782 22.696 54.1235 22.056C53.5688 21.416 52.8222 21.096 51.8835 21.096C51.2862 21.096 50.7528 21.2453 50.2835 21.544C49.8142 21.8213 49.4515 22.2373 49.1955 22.792C48.9608 23.3253 48.8435 23.976 48.8435 24.744C48.8435 25.896 49.1208 26.792 49.6755 27.432C50.2302 28.072 50.9662 28.392 51.8835 28.392ZM71.9148 33.352C70.1441 33.352 68.5974 33.0213 67.2748 32.36C65.9734 31.6987 64.9601 30.7493 64.2348 29.512C63.5094 28.2533 63.1468 26.7813 63.1468 25.096C63.1468 23.816 63.3494 22.6747 63.7548 21.672C64.1601 20.648 64.7468 19.784 65.5148 19.08C66.3041 18.376 67.2321 17.8427 68.2988 17.48C69.3868 17.096 70.5921 16.904 71.9148 16.904C72.5334 16.904 73.1841 16.968 73.8668 17.096C74.5494 17.2027 75.2534 17.416 75.9788 17.736C76.4908 17.928 76.8428 18.2267 77.0348 18.632C77.2481 19.016 77.3334 19.432 77.2908 19.88C77.2694 20.328 77.1414 20.7333 76.9068 21.096C76.6934 21.4587 76.3841 21.704 75.9788 21.832C75.5948 21.96 75.1574 21.9067 74.6668 21.672C74.3254 21.5013 73.9628 21.384 73.5788 21.32C73.2161 21.2347 72.8641 21.192 72.5228 21.192C71.9468 21.192 71.4348 21.2773 70.9868 21.448C70.5601 21.6187 70.1974 21.8747 69.8988 22.216C69.6001 22.536 69.3654 22.9413 69.1948 23.432C69.0454 23.9227 68.9708 24.4773 68.9708 25.096C68.9708 26.3333 69.2801 27.304 69.8988 28.008C70.5174 28.712 71.3921 29.064 72.5228 29.064C72.8641 29.064 73.2161 29.032 73.5788 28.968C73.9414 28.8827 74.3041 28.7547 74.6668 28.584C75.1574 28.3493 75.5948 28.3067 75.9788 28.456C76.3628 28.584 76.6721 28.8293 76.9068 29.192C77.1414 29.5547 77.2694 29.96 77.2908 30.408C77.3121 30.8347 77.2161 31.2507 77.0028 31.656C76.7894 32.04 76.4268 32.328 75.9148 32.52C75.2108 32.84 74.5174 33.0533 73.8348 33.16C73.1734 33.288 72.5334 33.352 71.9148 33.352ZM82.1988 33.288C81.3028 33.288 80.6094 33.0427 80.1188 32.552C79.6281 32.0613 79.3828 31.3467 79.3828 30.408V13.032C79.3828 12.0933 79.6281 11.3787 80.1188 10.888C80.6094 10.3973 81.3028 10.152 82.1988 10.152C83.1161 10.152 83.8201 10.3973 84.3108 10.888C84.8228 11.3787 85.0788 12.0933 85.0788 13.032V20.008H84.5668C85.0788 19.0053 85.8041 18.2373 86.7428 17.704C87.7028 17.1707 88.7908 16.904 90.0068 16.904C91.2654 16.904 92.3001 17.1493 93.1108 17.64C93.9214 18.1093 94.5294 18.856 94.9348 19.88C95.3401 20.8827 95.5428 22.152 95.5428 23.688V30.408C95.5428 31.3467 95.2974 32.0613 94.8068 32.552C94.3161 33.0427 93.6121 33.288 92.6948 33.288C91.7774 33.288 91.0734 33.0427 90.5828 32.552C90.0921 32.0613 89.8468 31.3467 89.8468 30.408V23.912C89.8468 22.952 89.6761 22.2693 89.3348 21.864C89.0148 21.4587 88.5348 21.256 87.8948 21.256C87.0414 21.256 86.3588 21.5333 85.8468 22.088C85.3348 22.6213 85.0788 23.3467 85.0788 24.264V30.408C85.0788 32.328 84.1188 33.288 82.1988 33.288ZM104.261 33.352C103.045 33.352 101.968 33.128 101.029 32.68C100.112 32.232 99.3863 31.624 98.853 30.856C98.341 30.0667 98.085 29.1707 98.085 28.168C98.085 27.016 98.3837 26.1093 98.981 25.448C99.5783 24.7867 100.538 24.3173 101.861 24.04C103.184 23.7413 104.944 23.592 107.141 23.592H108.901V26.28H107.141C106.309 26.28 105.616 26.344 105.061 26.472C104.528 26.5787 104.133 26.76 103.877 27.016C103.621 27.2507 103.493 27.56 103.493 27.944C103.493 28.4347 103.664 28.84 104.005 29.16C104.368 29.48 104.88 29.64 105.541 29.64C106.074 29.64 106.544 29.5227 106.949 29.288C107.376 29.0533 107.717 28.7333 107.973 28.328C108.229 27.9013 108.357 27.4107 108.357 26.856V23.144C108.357 22.376 108.154 21.832 107.749 21.512C107.365 21.192 106.693 21.032 105.733 21.032C105.221 21.032 104.645 21.096 104.005 21.224C103.365 21.3307 102.65 21.5333 101.861 21.832C101.285 22.0453 100.794 22.0773 100.389 21.928C99.9837 21.7787 99.6637 21.5227 99.429 21.16C99.2157 20.7973 99.109 20.4027 99.109 19.976C99.1303 19.5493 99.269 19.144 99.525 18.76C99.8023 18.376 100.218 18.0773 100.773 17.864C101.797 17.48 102.736 17.224 103.589 17.096C104.464 16.968 105.264 16.904 105.989 16.904C107.738 16.904 109.178 17.16 110.309 17.672C111.461 18.1627 112.314 18.9307 112.869 19.976C113.445 21 113.733 22.3227 113.733 23.944V30.408C113.733 31.3467 113.509 32.0613 113.061 32.552C112.613 33.0427 111.962 33.288 111.109 33.288C110.234 33.288 109.562 33.0427 109.093 32.552C108.645 32.0613 108.421 31.3467 108.421 30.408V29.576L108.613 30.024C108.506 30.7067 108.261 31.2933 107.877 31.784C107.493 32.2747 106.992 32.6587 106.373 32.936C105.754 33.2133 105.05 33.352 104.261 33.352ZM125.233 33.352C123.633 33.352 122.31 33.1067 121.265 32.616C120.241 32.1253 119.473 31.3893 118.961 30.408C118.449 29.4053 118.193 28.1573 118.193 26.664V21.448H117.105C116.422 21.448 115.889 21.2667 115.505 20.904C115.142 20.5413 114.96 20.0187 114.96 19.336C114.96 18.6533 115.142 18.1413 115.505 17.8C115.889 17.4373 116.422 17.256 117.105 17.256H118.193V15.272C118.193 14.3333 118.438 13.6187 118.929 13.128C119.419 12.6373 120.123 12.392 121.041 12.392C121.958 12.392 122.662 12.6373 123.153 13.128C123.643 13.6187 123.889 14.3333 123.889 15.272V17.256H126.513C127.217 17.256 127.75 17.4373 128.113 17.8C128.497 18.1413 128.689 18.6533 128.689 19.336C128.689 20.0187 128.497 20.5413 128.113 20.904C127.75 21.2667 127.217 21.448 126.513 21.448H123.889V26.472C123.889 27.2613 124.07 27.848 124.433 28.232C124.817 28.5947 125.414 28.776 126.225 28.776C126.523 28.776 126.811 28.744 127.089 28.68C127.366 28.616 127.622 28.584 127.857 28.584C128.198 28.5627 128.475 28.6693 128.689 28.904C128.902 29.1173 129.009 29.6187 129.009 30.408C129.009 31.048 128.913 31.592 128.721 32.04C128.529 32.4667 128.187 32.776 127.697 32.968C127.398 33.0747 126.993 33.16 126.481 33.224C125.969 33.3093 125.553 33.352 125.233 33.352Z" fill="#BA68C8"/>
<defs>
<clipPath id="clip0_9_172">
<rect width="28" height="28" fill="white" transform="translate(0 8)"/>
</clipPath>
</defs>
</svg>
